<svg width="81" height="63" viewBox="0 0 81 63" fill="none" xmlns="http://www.w3.org/2000/svg">
<path d="M80.1793 15.1544L52.9684 0.212828C52.4944 -0.0473423 51.9197 -0.0473423 51.4457 0.212828L41.2132 5.83151C40.982 5.89578 40.7663 6.01381 40.5834 6.17696L24.2347 15.1544C23.7286 15.4325 23.4141 15.9639 23.4141 16.5411V19.7756H5.16138C4.28755 19.7756 3.57935 20.4845 3.57935 21.3577C3.57935 22.2315 4.28755 22.9397 5.16138 22.9397H23.4141V28.635H14.344C13.4701 28.635 12.7619 29.3438 12.7619 30.217C12.7619 31.0909 13.4701 31.7991 14.344 31.7991H23.4141V40.0256H10.125C9.25117 40.0256 8.54297 40.7345 8.54297 41.6077C8.54297 42.4815 9.25117 43.1897 10.125 43.1897H23.4141V46.4248C23.4141 47.002 23.7286 47.5335 24.2347 47.8116L51.4457 62.7531C51.683 62.8835 51.945 62.9484 52.207 62.9484C52.4691 62.9484 52.7311 62.8835 52.9684 62.7531L80.1793 47.8116C80.6854 47.5335 81 47.002 81 46.4248V39.3403C81 38.4671 80.2918 37.7583 79.418 37.7583C78.5441 37.7583 77.8359 38.4671 77.8359 39.3403V45.4886L53.7891 58.693V32.4189L61.4366 28.2197V34.884C61.4366 35.4439 61.732 35.9618 62.2134 36.2461C62.4612 36.3925 62.7399 36.4661 63.0186 36.4661C63.2806 36.4661 63.5433 36.4012 63.7812 36.2702L69.6125 33.061C70.1174 32.7829 70.4313 32.252 70.4313 31.6749V23.2808L77.8359 19.2151V26.684C77.8359 27.5579 78.5441 28.2661 79.418 28.2661C80.2918 28.2661 81 27.5579 81 26.684V16.5411C81 15.9639 80.6854 15.4325 80.1793 15.1544ZM50.625 58.693L26.5781 45.4886V19.2151L50.625 32.4189V58.693ZM52.207 29.6782L28.2831 16.5411L35.8021 12.4124L59.7266 25.5494L52.207 29.6782ZM63.0137 23.7443L39.0891 10.6073L41.6828 9.18344L65.6067 22.3205L63.0137 23.7443ZM67.2672 30.7399L64.6006 32.2076V26.4826L67.2672 25.018V30.7399ZM68.8938 20.5154L44.9699 7.37832L52.207 3.4047L76.1309 16.5411L68.8938 20.5154Z" fill="white"/>
<path d="M79.418 31.4308C79.0021 31.4308 78.5936 31.5983 78.2994 31.8943C78.0053 32.1884 77.8359 32.5951 77.8359 33.0128C77.8359 33.4287 78.0053 33.8372 78.2994 34.1314C78.5936 34.4255 79.0021 34.5948 79.418 34.5948C79.8339 34.5948 80.2424 34.4255 80.5365 34.1314C80.8307 33.8372 81 33.4287 81 33.0128C81 32.5951 80.8307 32.1884 80.5365 31.8943C80.2424 31.5983 79.8339 31.4308 79.418 31.4308Z" fill="white"/>
<path d="M3.8494 40.0256H1.58203C0.708206 40.0256 0 40.7345 0 41.6077C0 42.4815 0.708206 43.1897 1.58203 43.1897H3.8494C4.72323 43.1897 5.43143 42.4815 5.43143 41.6077C5.43143 40.7345 4.72323 40.0256 3.8494 40.0256Z" fill="white"/>
<path d="M9.59839 30.217C9.59839 29.8011 9.42906 29.3933 9.13428 29.0991C8.84013 28.8043 8.43226 28.635 8.01636 28.635C7.59984 28.635 7.19197 28.8043 6.89781 29.0991C6.6018 29.3933 6.43433 29.8011 6.43433 30.217C6.43433 30.6336 6.6018 31.0414 6.89781 31.3356C7.19197 31.6297 7.59984 31.7991 8.01636 31.7991C8.43226 31.7991 8.84013 31.6304 9.13428 31.3356C9.42906 31.0414 9.59839 30.6336 9.59839 30.217Z" fill="white"/>
</svg>
