<svg width="16" height="16" viewBox="0 0 16 16" fill="none" xmlns="http://www.w3.org/2000/svg">
<g clip-path="url(#clip0_298_1885)">
<path d="M14.2857 1.71428H12.5714V0.571439C12.5714 0.255837 12.3156 0 12 0C11.6844 0 11.4286 0.255837 11.4286 0.571439V1.71428H4.57141V0.571439C4.57141 0.255837 4.31558 0 4.00001 0C3.68444 0 3.42857 0.255837 3.42857 0.571439V1.71428H1.71428C0.767511 1.71428 0 2.4818 0 3.42857V14.2857C0 15.2325 0.767511 16 1.71428 16H14.2857C15.2325 16 16 15.2325 16 14.2857V3.42857C16 2.4818 15.2325 1.71428 14.2857 1.71428ZM14.8571 14.2857C14.8571 14.6013 14.6013 14.8572 14.2857 14.8572H1.71428C1.39868 14.8572 1.14285 14.6013 1.14285 14.2857V6.85714H14.8571V14.2857ZM14.8571 5.71429H1.14285V3.42857C1.14285 3.11297 1.39868 2.85713 1.71428 2.85713H3.42857V3.99997C3.42857 4.31558 3.68441 4.57141 4.00001 4.57141C4.31561 4.57141 4.57145 4.31558 4.57145 3.99997V2.85713H11.4286V3.99997C11.4286 4.31558 11.6844 4.57141 12 4.57141C12.3156 4.57141 12.5715 4.31558 12.5715 3.99997V2.85713H14.2857C14.6014 2.85713 14.8572 3.11297 14.8572 3.42857V5.71429H14.8571Z" fill="#727272"/>
<path d="M4.57171 7.99998H3.42886C3.11326 7.99998 2.85742 8.25582 2.85742 8.57142C2.85742 8.88703 3.11326 9.14286 3.42886 9.14286H4.57171C4.88731 9.14286 5.14315 8.88703 5.14315 8.57142C5.14315 8.25582 4.88731 7.99998 4.57171 7.99998Z" fill="#727272"/>
<path d="M8.57171 7.99998H7.42886C7.11326 7.99998 6.85742 8.25582 6.85742 8.57142C6.85742 8.88703 7.11326 9.14286 7.42886 9.14286H8.57171C8.88731 9.14286 9.14314 8.88703 9.14314 8.57142C9.14314 8.25582 8.88731 7.99998 8.57171 7.99998Z" fill="#727272"/>
<path d="M12.5717 7.99998H11.4289C11.1133 7.99998 10.8574 8.25582 10.8574 8.57142C10.8574 8.88703 11.1133 9.14286 11.4289 9.14286H12.5717C12.8873 9.14286 13.1431 8.88703 13.1431 8.57142C13.1431 8.25582 12.8873 7.99998 12.5717 7.99998Z" fill="#727272"/>
<path d="M4.57171 10.2857H3.42886C3.11326 10.2857 2.85742 10.5415 2.85742 10.8571C2.85742 11.1727 3.11326 11.4286 3.42886 11.4286H4.57171C4.88731 11.4286 5.14315 11.1727 5.14315 10.8571C5.14315 10.5415 4.88731 10.2857 4.57171 10.2857Z" fill="#727272"/>
<path d="M8.57171 10.2857H7.42886C7.11326 10.2857 6.85742 10.5415 6.85742 10.8571C6.85742 11.1727 7.11326 11.4286 7.42886 11.4286H8.57171C8.88731 11.4286 9.14314 11.1727 9.14314 10.8571C9.14314 10.5415 8.88731 10.2857 8.57171 10.2857Z" fill="#727272"/>
<path d="M12.5717 10.2857H11.4289C11.1133 10.2857 10.8574 10.5415 10.8574 10.8571C10.8574 11.1727 11.1133 11.4286 11.4289 11.4286H12.5717C12.8873 11.4286 13.1431 11.1727 13.1431 10.8571C13.1431 10.5415 12.8873 10.2857 12.5717 10.2857Z" fill="#727272"/>
<path d="M4.57171 12.5714H3.42886C3.11326 12.5714 2.85742 12.8273 2.85742 13.1429C2.85742 13.4585 3.11326 13.7143 3.42886 13.7143H4.57171C4.88731 13.7143 5.14315 13.4584 5.14315 13.1428C5.14315 12.8272 4.88731 12.5714 4.57171 12.5714Z" fill="#727272"/>
<path d="M8.57171 12.5714H7.42886C7.11326 12.5714 6.85742 12.8273 6.85742 13.1429C6.85742 13.4585 7.11326 13.7143 7.42886 13.7143H8.57171C8.88731 13.7143 9.14314 13.4585 9.14314 13.1429C9.14314 12.8273 8.88731 12.5714 8.57171 12.5714Z" fill="#727272"/>
<path d="M12.5717 12.5714H11.4289C11.1133 12.5714 10.8574 12.8273 10.8574 13.1429C10.8574 13.4585 11.1133 13.7143 11.4289 13.7143H12.5717C12.8873 13.7143 13.1431 13.4585 13.1431 13.1429C13.1431 12.8273 12.8873 12.5714 12.5717 12.5714Z" fill="#727272"/>
</g>
<defs>
<clipPath id="clip0_298_1885">
<rect width="16" height="16" fill="white"/>
</clipPath>
</defs>
</svg>
