<svg width="14" height="14" viewBox="0 0 14 14" fill="none" xmlns="http://www.w3.org/2000/svg">
<path d="M7.77344 7.00017L13.8398 0.933755C14.0534 0.720174 14.0534 0.373893 13.8398 0.160339C13.6262 -0.0532155 13.28 -0.0532428 13.0664 0.160339L6.99999 6.22676L0.933603 0.160339C0.720021 -0.0532428 0.37374 -0.0532428 0.160186 0.160339C-0.0533681 0.37392 -0.0533954 0.720201 0.160186 0.933755L6.22658 7.00015L0.160186 13.0666C-0.0533954 13.2801 -0.0533954 13.6264 0.160186 13.84C0.266963 13.9468 0.406936 14.0001 0.546908 14.0001C0.686881 14.0001 0.826826 13.9468 0.93363 13.84L6.99999 7.77359L13.0664 13.84C13.1732 13.9468 13.3131 14.0001 13.4531 14.0001C13.5931 14.0001 13.733 13.9468 13.8398 13.84C14.0534 13.6264 14.0534 13.2801 13.8398 13.0666L7.77344 7.00017Z" fill="#727272"/>
</svg>
