<svg width="28" height="28" viewBox="0 0 28 28" fill="none" xmlns="http://www.w3.org/2000/svg">
<path d="M8.93194 21.7789C7.31749 21.7789 6.00879 23.0877 6.00879 24.7021C6.00879 26.3165 7.31755 27.6252 8.93194 27.6252C10.5464 27.6252 11.8551 26.3164 11.8551 24.7021C11.8551 23.0877 10.5464 21.7789 8.93194 21.7789ZM8.93194 26.3261C8.03504 26.3261 7.30798 25.599 7.30798 24.7021C7.30798 23.8052 8.03504 23.0782 8.93194 23.0782C9.82884 23.0782 10.5559 23.8052 10.5559 24.7021C10.556 25.599 9.82884 26.3261 8.93194 26.3261Z" fill="black"/>
<path d="M21.2742 21.7789C19.6598 21.7789 18.3511 23.0877 18.3511 24.7021C18.3511 26.3165 19.6598 27.6252 21.2742 27.6252C22.8886 27.6252 24.1974 26.3164 24.1974 24.7021C24.1974 23.0877 22.8887 21.7789 21.2742 21.7789ZM21.2742 26.3261C20.3773 26.3261 19.6503 25.599 19.6503 24.7021C19.6503 23.8052 20.3773 23.0782 21.2742 23.0782C22.1711 23.0782 22.8982 23.8052 22.8982 24.7021C22.8982 25.599 22.1711 26.3261 21.2742 26.3261Z" fill="black"/>
<path d="M27.8676 4.72709C27.7323 4.57932 27.5472 4.48681 27.3479 4.46723L6.20364 4.17491L5.61901 2.38851C5.20715 1.19432 4.08887 0.388122 2.82573 0.374756H0.649596C0.290823 0.374756 0 0.665579 0 1.02435C0 1.38312 0.290823 1.67395 0.649596 1.67395H2.82573C3.53202 1.68955 4.15395 2.14307 4.38479 2.81076L8.50971 15.2505L8.18494 15.9975C7.82269 16.9316 7.93148 17.983 8.47726 18.8232C9.01781 19.6485 9.92721 20.1577 10.9133 20.1874H23.5479C23.9067 20.1874 24.1975 19.8966 24.1975 19.5378C24.1975 19.179 23.9067 18.8882 23.5479 18.8882H10.9132C10.3564 18.8743 9.84378 18.5813 9.54904 18.1087C9.25759 17.6418 9.19772 17.0666 9.38665 16.5496L9.64652 15.965L23.3205 14.5359C24.8225 14.3704 26.058 13.278 26.4061 11.8076L27.9651 5.27914C28.0354 5.09115 27.9981 4.87971 27.8676 4.72709ZM25.1393 11.5153C24.9285 12.4619 24.1248 13.1601 23.1581 13.2367L9.64652 14.6333L6.62589 5.4741L26.5359 5.76642L25.1393 11.5153Z" fill="black"/>
</svg>
