<svg width="16" height="16" viewBox="0 0 16 16" fill="none" xmlns="http://www.w3.org/2000/svg">
<g clip-path="url(#clip0_298_1918)">
<path d="M10.8491 9.41284L8.61828 7.73971V4.33153C8.61828 3.98884 8.34128 3.71184 7.99859 3.71184C7.65591 3.71184 7.37891 3.98884 7.37891 4.33153V8.04959C7.37891 8.24478 7.47062 8.42884 7.62678 8.54534L10.1055 10.4044C10.217 10.488 10.3472 10.5283 10.4767 10.5283C10.6657 10.5283 10.8516 10.4434 10.973 10.2798C11.1788 10.0065 11.123 9.61796 10.8491 9.41284Z" fill="#727272"/>
<path d="M8 0C3.58853 0 0 3.58853 0 8C0 12.4115 3.58853 16 8 16C12.4115 16 16 12.4115 16 8C16 3.58853 12.4115 0 8 0ZM8 14.7607C4.27266 14.7607 1.23934 11.7273 1.23934 8C1.23934 4.27266 4.27266 1.23934 8 1.23934C11.728 1.23934 14.7607 4.27266 14.7607 8C14.7607 11.7273 11.7273 14.7607 8 14.7607Z" fill="#727272"/>
</g>
<defs>
<clipPath id="clip0_298_1918">
<rect width="16" height="16" fill="white"/>
</clipPath>
</defs>
</svg>
