<svg width="77" height="81" viewBox="0 0 77 81" fill="none" xmlns="http://www.w3.org/2000/svg">
<path d="M57.8916 0H10.3381C8.14514 0 6.36124 1.78406 6.36124 3.97707V5.49107H4.40806C2.21521 5.49107 0.431152 7.27513 0.431152 9.46814V60.3013C0.431152 60.9568 0.962398 61.4879 1.61768 61.4879C2.27295 61.4879 2.8042 60.9568 2.8042 60.3013V9.46814C2.8042 8.58363 3.52371 7.86412 4.40806 7.86412H51.9615C52.8459 7.86412 53.5654 8.58363 53.5654 9.46814V77.0231C53.5654 77.9076 52.8459 78.6271 51.9615 78.6271H4.40806C3.52371 78.6271 2.8042 77.9076 2.8042 77.0231V65.8386C2.8042 65.1832 2.27295 64.6521 1.61768 64.6521C0.962398 64.6521 0.431152 65.1832 0.431152 65.8386V77.0231C0.431152 79.216 2.21521 81.0002 4.40806 81.0002H51.9615C54.1544 81.0002 55.9385 79.2161 55.9385 77.0231V75.5091H57.8915C60.0843 75.5091 61.8684 73.725 61.8684 71.532V19.0617C61.8684 18.4063 61.3371 17.8752 60.6819 17.8752C60.0266 17.8752 59.4953 18.4063 59.4953 19.0617V71.5319C59.4953 72.4164 58.7758 73.1359 57.8915 73.1359H56.3773V9.46814C56.3773 7.27529 54.5933 5.49107 52.4004 5.49107C51.747 5.49107 9.03503 5.49107 8.73413 5.49107V3.97707C8.73428 3.09256 9.45363 2.37305 10.3381 2.37305H57.8916C58.776 2.37305 59.4955 3.09256 59.4955 3.97707V13.5248C59.4955 14.1802 60.0267 14.7113 60.682 14.7113C61.3373 14.7113 61.8685 14.1802 61.8685 13.5248V3.97707C61.8685 1.78406 60.0845 0 57.8916 0V0Z" fill="white"/>
<path d="M73.8927 23.54H67.5625C66.0869 23.54 64.8865 24.7405 64.8865 26.216V59.898C64.8865 59.9209 64.8887 59.9432 64.89 59.9658C64.8906 59.9782 64.8907 59.9905 64.8919 60.0029C64.9002 60.0978 64.92 60.1892 64.9493 60.2764C64.9524 60.2856 64.9561 60.2947 64.9594 60.3039C64.9727 60.3403 64.9877 60.3759 65.0043 60.4107C65.007 60.4162 65.0088 60.4223 65.0116 60.4278L68.905 68.2282C69.2844 68.9883 69.9657 69.4422 70.7278 69.4422C71.4899 69.4422 72.1713 68.9883 72.5505 68.2283L76.4438 60.4278C76.4473 60.421 76.4494 60.4137 76.4527 60.4069C76.468 60.3748 76.4818 60.3419 76.4943 60.3082C76.4986 60.2966 76.503 60.2854 76.5068 60.2739C76.5204 60.2332 76.5323 60.1916 76.5415 60.149C76.5421 60.146 76.5432 60.1432 76.5438 60.1402C76.553 60.0962 76.5592 60.0511 76.5633 60.0054C76.5647 59.9899 76.5649 59.9744 76.5657 59.9589C76.5668 59.9386 76.5687 59.9185 76.5687 59.898C76.5687 58.6671 76.5687 27.8971 76.5687 26.216C76.5687 24.7405 75.3682 23.54 73.8927 23.54ZM70.7276 66.5665L67.9915 61.0846H73.4639L70.7276 66.5665ZM74.1956 58.7114H67.2597V33.3385H74.1956V58.7114ZM74.1956 30.9655H67.2597V26.216C67.2597 26.049 67.3956 25.9131 67.5626 25.9131H73.8928C74.0599 25.9131 74.1958 26.049 74.1958 26.216V30.9655H74.1956Z" fill="white"/>
<path d="M7.21021 72.1815C7.21021 73.5337 8.31019 74.6336 9.66235 74.6336H16.2014C17.5535 74.6336 18.6535 73.5337 18.6535 72.1815V65.9331L21.3605 63.0533C21.8093 62.5759 21.7861 61.8249 21.3086 61.3761C20.8312 60.9272 20.0803 60.9505 19.6314 61.4279L17.5768 63.6137C17.1843 63.3466 16.7108 63.1903 16.2014 63.1903H9.66235C8.31019 63.1903 7.21021 64.2903 7.21021 65.6425V72.1815ZM16.2805 68.4575V72.1815C16.2805 72.225 16.245 72.2606 16.2014 72.2606H12.685C12.7317 72.224 12.7767 72.1848 12.818 72.141L16.2805 68.4575ZM9.58325 65.6425C9.58325 65.599 9.61869 65.5634 9.66235 65.5634H15.7442L12.1197 69.4191L9.99331 66.1786C9.88558 66.0144 9.74351 65.8864 9.58341 65.7964V65.6425H9.58325ZM9.58325 69.8795C11.0857 72.169 11.0133 72.0975 11.2208 72.2606H9.66235C9.61869 72.2606 9.58325 72.225 9.58325 72.1815V69.8795Z" fill="white"/>
<path d="M47.9328 67.7253H22.7258C22.0706 67.7253 21.5393 68.2564 21.5393 68.9119C21.5393 69.5673 22.0706 70.0984 22.7258 70.0984H47.9328C48.5881 70.0984 49.1193 69.5673 49.1193 68.9119C49.1193 68.2564 48.5881 67.7253 47.9328 67.7253Z" fill="white"/>
<path d="M9.97876 38.4292H31.0133C32.5398 38.4292 33.7818 37.1872 33.7818 35.6607V14.626C33.7818 13.0995 32.5398 11.8574 31.0133 11.8574H9.97876C8.45226 11.8574 7.21021 13.0995 7.21021 14.626V35.6607C7.21021 37.1873 8.45226 38.4292 9.97876 38.4292ZM9.58325 14.626C9.58325 14.4078 9.76076 14.2305 9.97876 14.2305H31.0133C31.2313 14.2305 31.4088 14.4078 31.4088 14.626V35.6607C31.4088 35.8788 31.2313 36.0562 31.0133 36.0562H9.97876C9.76076 36.0562 9.58325 35.8788 9.58325 35.6607V14.626Z" fill="white"/>
<path d="M15.8768 34.1544C16.5318 34.1544 17.0649 33.6229 17.0649 32.9695V30.4066C17.0681 28.5226 18.5994 26.9852 20.4815 26.9739C20.4864 26.9739 20.4911 26.9742 20.4961 26.9742C20.5011 26.9742 20.506 26.9739 20.5109 26.9739C22.3932 26.985 23.9246 28.5224 23.9278 30.4066V31.7828H21.4139C20.7606 31.7828 20.2274 32.3144 20.2274 32.9693C20.2274 33.6227 20.7606 34.1559 21.4139 34.1559C21.4155 34.1559 21.4171 34.1559 21.4171 34.1543H25.1143C25.426 34.1543 25.7329 34.0277 25.9528 33.808C26.1743 33.5865 26.3008 33.2812 26.3008 32.9693V30.4066C26.3008 28.8545 25.6965 27.3974 24.6002 26.3012C24.3934 26.0945 24.1738 25.9053 23.9431 25.7344C25.1482 24.7391 25.9175 23.2343 25.9175 21.5531C25.9175 18.5637 23.4855 16.1315 20.4961 16.1315C17.5066 16.1315 15.0746 18.5635 15.0746 21.5531C15.0746 23.2342 15.8438 24.739 17.0486 25.7342C16.8178 25.9053 16.5979 26.0945 16.391 26.3014C15.2946 27.3977 14.6919 28.8548 14.6919 30.4068V32.9695C14.6919 33.2813 14.8185 33.5865 15.0384 33.8081C15.2598 34.0279 15.5652 34.1544 15.8768 34.1544ZM20.4961 18.5045C22.177 18.5045 23.5445 19.8722 23.5445 21.5531C23.5445 23.2305 22.1825 24.5952 20.5063 24.6009C20.503 24.6009 20.4997 24.6007 20.4964 24.6007C20.4929 24.6007 20.4894 24.6009 20.4859 24.601C18.8098 24.5955 17.4476 23.2307 17.4476 21.5532C17.4476 19.872 18.8151 18.5045 20.4961 18.5045Z" fill="white"/>
<path d="M37.4458 20.0233H47.9328C48.588 20.0233 49.1193 19.4922 49.1193 18.8368C49.1193 18.1814 48.588 17.6503 47.9328 17.6503H37.4458C36.7905 17.6503 36.2593 18.1814 36.2593 18.8368C36.2593 19.4922 36.7905 20.0233 37.4458 20.0233Z" fill="white"/>
<path d="M37.4458 26.7502H47.9328C48.588 26.7502 49.1193 26.2192 49.1193 25.5637C49.1193 24.9083 48.588 24.3772 47.9328 24.3772H37.4458C36.7905 24.3772 36.2593 24.9083 36.2593 25.5637C36.2593 26.2192 36.7905 26.7502 37.4458 26.7502Z" fill="white"/>
<path d="M37.4458 33.9253H47.9328C48.588 33.9253 49.1193 33.3942 49.1193 32.7388C49.1193 32.0833 48.588 31.5522 47.9328 31.5522H37.4458C36.7905 31.5522 36.2593 32.0833 36.2593 32.7388C36.2593 33.3942 36.7905 33.9253 37.4458 33.9253Z" fill="white"/>
<path d="M8.39673 45.3829H47.9328C48.5881 45.3829 49.1193 44.8518 49.1193 44.1964C49.1193 43.541 48.5881 43.0099 47.9328 43.0099H8.39673C7.74145 43.0099 7.21021 43.541 7.21021 44.1964C7.21021 44.8518 7.74145 45.3829 8.39673 45.3829Z" fill="white"/>
<path d="M8.39673 52.1097H47.9328C48.5881 52.1097 49.1193 51.5787 49.1193 50.9232C49.1193 50.2678 48.5881 49.7367 47.9328 49.7367H8.39673C7.74145 49.7367 7.21021 50.2678 7.21021 50.9232C7.21021 51.5787 7.74145 52.1097 8.39673 52.1097Z" fill="white"/>
<path d="M8.39673 58.8365H47.9328C48.5881 58.8365 49.1193 58.3055 49.1193 57.65C49.1193 56.9946 48.5881 56.4635 47.9328 56.4635H8.39673C7.74145 56.4635 7.21021 56.9946 7.21021 57.65C7.21021 58.3055 7.74145 58.8365 8.39673 58.8365Z" fill="white"/>
</svg>
