<svg width="14" height="16" viewBox="0 0 14 16" fill="none" xmlns="http://www.w3.org/2000/svg">
<path d="M12.9564 3.88725L9.2065 0.137344C9.11897 0.0497812 8.9995 0 8.875 0H2.3125C1.53709 0 0.90625 0.630844 0.90625 1.40625V14.5938C0.90625 15.3692 1.53709 16 2.3125 16H11.6875C12.4629 16 13.0938 15.3692 13.0938 14.5938V4.21875C13.0938 4.09094 13.0401 3.97091 12.9564 3.88725ZM9.34375 1.60041L11.4933 3.75H9.8125C9.55403 3.75 9.34375 3.53972 9.34375 3.28125V1.60041ZM11.6875 15.0625H2.3125C2.05403 15.0625 1.84375 14.8522 1.84375 14.5938V1.40625C1.84375 1.14778 2.05403 0.9375 2.3125 0.9375H8.40625V3.28125C8.40625 4.05666 9.03709 4.6875 9.8125 4.6875H12.1562V14.5938C12.1562 14.8522 11.946 15.0625 11.6875 15.0625Z" fill="white"/>
<path d="M9.8125 6.625H4.1875C3.92862 6.625 3.71875 6.83487 3.71875 7.09375C3.71875 7.35263 3.92862 7.5625 4.1875 7.5625H9.8125C10.0714 7.5625 10.2812 7.35263 10.2812 7.09375C10.2812 6.83487 10.0714 6.625 9.8125 6.625Z" fill="white"/>
<path d="M9.8125 8.5H4.1875C3.92862 8.5 3.71875 8.70987 3.71875 8.96875C3.71875 9.22763 3.92862 9.4375 4.1875 9.4375H9.8125C10.0714 9.4375 10.2812 9.22763 10.2812 8.96875C10.2812 8.70987 10.0714 8.5 9.8125 8.5Z" fill="white"/>
<path d="M9.8125 10.375H4.1875C3.92862 10.375 3.71875 10.5849 3.71875 10.8438C3.71875 11.1026 3.92862 11.3125 4.1875 11.3125H9.8125C10.0714 11.3125 10.2812 11.1026 10.2812 10.8438C10.2812 10.5849 10.0714 10.375 9.8125 10.375Z" fill="white"/>
<path d="M7.9375 12.25H4.1875C3.92862 12.25 3.71875 12.4599 3.71875 12.7188C3.71875 12.9776 3.92862 13.1875 4.1875 13.1875H7.9375C8.19637 13.1875 8.40625 12.9776 8.40625 12.7188C8.40625 12.4599 8.19637 12.25 7.9375 12.25Z" fill="white"/>
</svg>
