<svg width="16" height="12" viewBox="0 0 16 12" fill="none" xmlns="http://www.w3.org/2000/svg">
<path fill-rule="evenodd" clip-rule="evenodd" d="M9.98243 6.94261C9.42044 7.37691 8.60077 8.01035 7.99998 7.99998C7.39919 8.01035 6.57952 7.37691 6.01753 6.94261C5.90135 6.85282 5.79617 6.77154 5.70622 6.70622C1.86269 3.91697 1.31041 3.48477 0.488794 2.8418C0.423958 2.79106 0.357445 2.73901 0.287505 2.68438C0.106262 2.54061 0 2.32501 0 2.09374V1.5C0 0.671873 0.671873 0 1.5 0H14.5C15.3281 0 16 0.671873 16 1.5V2.09374C16 2.32501 15.8937 2.54376 15.7125 2.68438C15.659 2.72634 15.6075 2.76677 15.5572 2.80624C14.7089 3.47234 14.2086 3.86522 10.2937 6.70622C10.2038 6.77154 10.0986 6.85282 9.98243 6.94261ZM16 10.5C16 11.3281 15.3281 12 14.5 12H1.5C0.671873 12 0 11.3281 0 10.5V4.11248C0 3.95623 0.178131 3.86873 0.30313 3.96563C0.515246 4.13039 0.748311 4.30865 1.05885 4.54153L1.25492 4.68814C1.97687 5.22651 3.09033 6.04204 5.11873 7.51561C5.21869 7.58857 5.32907 7.67373 5.44827 7.76571C6.11536 8.28044 7.05879 9.0084 7.99998 9.00309C8.94555 9.01106 9.90457 8.26921 10.5612 7.76126C10.6793 7.6699 10.7876 7.58611 10.8843 7.51561C14.0718 5.2 14.9969 4.50625 15.6968 3.96248C15.8187 3.86562 16 3.95623 16 4.10936V10.5Z" fill="#183B56"/>
</svg>
