<svg width="16" height="12" viewBox="0 0 16 12" fill="none" xmlns="http://www.w3.org/2000/svg">
<path d="M15.8983 5.68879C15.7554 5.49326 12.3496 0.901093 7.99992 0.901093C3.65019 0.901093 0.244313 5.49326 0.101531 5.6886C-0.0338438 5.8741 -0.0338438 6.1257 0.101531 6.3112C0.244313 6.50673 3.65019 11.0989 7.99992 11.0989C12.3496 11.0989 15.7554 6.5067 15.8983 6.31135C16.0339 6.12588 16.0339 5.8741 15.8983 5.68879ZM7.99992 10.044C4.79588 10.044 2.02085 6.99604 1.19938 5.99963C2.01979 5.00235 4.78901 1.95603 7.99992 1.95603C11.2038 1.95603 13.9787 5.00341 14.8005 6.00035C13.9801 6.9976 11.2108 10.044 7.99992 10.044Z" fill="#727272"/>
<path d="M8.00079 2.83516C6.25572 2.83516 4.83594 4.25494 4.83594 6.00001C4.83594 7.74507 6.25572 9.16486 8.00079 9.16486C9.74585 9.16486 11.1656 7.74507 11.1656 6.00001C11.1656 4.25494 9.74585 2.83516 8.00079 2.83516ZM8.00079 8.10989C6.83735 8.10989 5.89091 7.16342 5.89091 6.00001C5.89091 4.8366 6.83738 3.89013 8.00079 3.89013C9.1642 3.89013 10.1107 4.8366 10.1107 6.00001C10.1107 7.16342 9.16423 8.10989 8.00079 8.10989Z" fill="#727272"/>
</svg>
