<svg width="12" height="21" viewBox="0 0 12 21" fill="none" xmlns="http://www.w3.org/2000/svg">
<path d="M7.32813 20.9609H4.12531C3.59033 20.9609 3.15515 20.5258 3.15515 19.9908V12.7667H1.28656C0.751587 12.7667 0.316406 12.3313 0.316406 11.7965V8.70096C0.316406 8.16599 0.751587 7.73081 1.28656 7.73081H3.15515V6.18066C3.15515 4.64365 3.63779 3.33597 4.55072 2.39923C5.46777 1.45822 6.74936 0.960938 8.25693 0.960938L10.6996 0.964905C11.2336 0.96582 11.668 1.401 11.668 1.93506V4.8092C11.668 5.34418 11.233 5.77936 10.6982 5.77936L9.05359 5.77997C8.55203 5.77997 8.42432 5.88052 8.397 5.91135C8.35199 5.96246 8.29843 6.10696 8.29843 6.50598V7.73065H10.5746C10.7459 7.73065 10.912 7.77292 11.0546 7.85257C11.3624 8.02454 11.5537 8.3497 11.5537 8.70111L11.5525 11.7967C11.5525 12.3313 11.1173 12.7665 10.5824 12.7665H8.29843V19.9908C8.29843 20.5258 7.8631 20.9609 7.32813 20.9609V20.9609ZM4.32764 19.7885H7.12579V12.2418C7.12579 11.8846 7.41647 11.594 7.77353 11.594H10.38L10.3811 8.90329H7.77338C7.41632 8.90329 7.12579 8.61276 7.12579 8.25555V6.50598C7.12579 6.04791 7.17233 5.52698 7.5181 5.13544C7.93588 4.66211 8.5943 4.60748 9.05328 4.60748L10.4955 4.60687V2.13709L8.25601 2.13342C5.83322 2.13342 4.32764 3.68433 4.32764 6.18066V8.25555C4.32764 8.61261 4.03711 8.90329 3.68005 8.90329H1.48889V11.594H3.68005C4.03711 11.594 4.32764 11.8846 4.32764 12.2418V19.7885ZM10.6973 2.13739H10.6974H10.6973Z" fill="white"/>
</svg>
