<svg width="33" height="34" viewBox="0 0 33 34" fill="none" xmlns="http://www.w3.org/2000/svg">
<path d="M32.4897 12.6627C32.4897 12.928 32.2907 13.127 32.0917 13.2597C31.6937 13.5914 31.2957 13.9231 30.8313 14.1884C30.6323 14.3211 30.4996 14.3875 30.3006 14.5201C29.0402 15.2498 27.7135 15.7142 26.3204 15.8469C24.3966 16.0459 22.5391 15.8469 20.748 15.1835C20.0183 14.9182 19.2886 14.5865 18.6252 14.1884C18.1609 13.9231 17.6965 13.6577 17.2322 13.3924C15.7064 12.4637 14.1806 11.6013 12.5885 11.0042C11.1291 10.4735 9.6697 10.0755 8.14394 9.87651C6.15382 9.6775 4.23004 9.87651 2.30625 10.5399C2.10724 10.6062 1.90823 10.6726 1.64288 10.7389C1.31119 10.8052 1.17852 10.6726 1.24486 10.3409C1.37753 9.87651 1.51021 9.41215 1.70922 9.01413C2.43893 7.28936 3.56666 5.82994 4.95975 4.56953C6.61818 3.04377 8.6083 1.98237 10.7311 1.25266C12.6549 0.589286 14.645 0.257599 17.0995 0.257599C20.2837 0.257599 23.6005 1.18632 26.5857 3.1101C28.6422 4.50319 30.3669 6.22796 31.4283 8.48343C31.959 9.54483 32.2907 10.6726 32.4897 11.8666C32.5561 12.1983 32.5561 12.3973 32.4897 12.6627Z" fill="black"/>
<path d="M32.556 16.2449V31.9669C32.556 32.5639 32.0916 33.0283 31.4946 33.0283H15.3083C14.7113 33.0283 14.2469 32.5639 14.2469 31.9669V26.4609C14.2469 24.1391 12.3894 22.2816 10.0676 22.2153C7.6795 22.1489 5.75571 24.2054 5.75571 26.5272V31.9669C5.75571 32.5639 5.29135 33.0283 4.76065 33.0283H1.97448C1.37745 33.0283 0.913086 32.5639 0.913086 30.6401V13.8568C0.913086 13.8568 1.17844 13.4587 1.37745 13.3261C1.51012 13.1934 1.70913 13.1271 1.84181 13.0607C3.10222 12.3973 4.42896 11.9993 5.88839 11.9993C6.88345 11.9993 7.87851 11.933 8.80723 12.132C10.5983 12.3973 12.2568 12.928 13.7825 13.7241C13.9815 13.8568 14.2469 13.9231 14.4459 14.0558C15.3746 14.5201 16.237 14.9845 17.1657 15.5152C18.6915 16.3112 20.2173 16.9746 21.942 17.3063C23.9321 17.7043 25.9223 17.7707 27.9787 17.3726C29.1728 17.1073 30.2342 16.7756 31.2956 16.2449C31.4946 16.1786 31.7599 16.0459 31.959 15.9796C32.357 15.8469 32.556 15.9796 32.556 16.2449Z" fill="black"/>
</svg>
