<svg width="46" height="60" viewBox="0 0 46 60" fill="none" xmlns="http://www.w3.org/2000/svg">
<path d="M22.7611 35.277C18.2331 30.749 11.6901 29.9 8.17306 33.394C6.72047 34.8896 5.93639 36.9102 6.00005 38.994C6.12777 42.3946 7.58702 45.6087 10.0631 47.9431C12.4209 50.412 15.6511 51.8606 19.0631 51.979C21.1392 52.0368 23.1521 51.2615 24.6531 49.826C26.1053 48.3304 26.889 46.3098 26.8251 44.2261C26.6971 40.8254 25.2375 37.6113 22.7611 35.277ZM11.4771 46.529C9.38856 44.5593 8.14267 41.8583 8.00006 38.9911C7.99129 38.2043 8.12476 37.4224 8.39406 36.683C9.26708 37.2003 10.2459 37.5131 11.2571 37.598C13.503 37.7148 15.2994 39.5064 15.4221 41.752C15.6735 44.8767 18.1579 47.3556 21.2831 47.6C22.0206 47.649 22.7371 47.8659 23.3781 48.2341C23.3281 48.2891 23.2911 48.3551 23.2391 48.4071C20.5051 51.1251 15.2281 50.28 11.4771 46.529ZM24.4291 46.537C23.5563 46.0195 22.5773 45.707 21.5661 45.623C19.3194 45.5067 17.5223 43.7144 17.4001 41.468C17.1505 38.3426 14.6659 35.8623 11.5401 35.618C10.8025 35.5684 10.086 35.3512 9.44506 34.9831C9.49506 34.9281 9.53106 34.8621 9.58406 34.8101C10.7104 33.7405 12.2187 33.1673 13.7711 33.2191C16.6518 33.351 19.3686 34.597 21.3481 36.694C23.4353 38.6635 24.6801 41.3638 24.8221 44.23C24.8311 45.0164 24.698 45.798 24.4291 46.537Z" fill="white"/>
<path d="M21.5499 32C21.783 32.1273 22.0572 32.1567 22.3119 32.0817C22.5667 32.0066 22.7811 31.8333 22.9079 31.6C24.5079 28.682 26.9509 27 29.6079 26.995C29.7673 26.995 29.9293 27.002 30.0939 27.016C29.8916 27.9641 29.4483 28.844 28.8069 29.571C26.4534 32.3095 26.4534 36.3565 28.8069 39.095C29.6977 40.0688 30.1856 41.3444 30.1719 42.664C30.1911 43.979 29.7034 45.2509 28.8099 46.216C27.6976 47.4842 27.0705 49.1054 27.0399 50.792C27.0271 51.2651 27.3476 51.6824 27.8079 51.792C28.3975 51.9324 29.0019 52.0016 29.6079 51.998C35.3479 51.988 40.008 45.931 39.999 38.498C40.009 31.911 36.3909 26.318 31.3989 25.198C30.8083 25.0667 30.205 25.0003 29.5999 25C26.2409 25.01 23.0819 27.12 21.1499 30.643C21.0229 30.876 20.9937 31.1499 21.0688 31.4044C21.1438 31.6589 21.3169 31.8732 21.5499 32ZM32.0389 27.5C35.511 28.955 38.0079 33.443 38 38.5C38.0079 44.832 34.2429 49.991 29.6069 50C29.4419 50 29.2819 49.994 29.1249 49.982C29.326 49.0323 29.7694 48.1507 30.4119 47.423C32.7646 44.6842 32.7646 40.6378 30.4119 37.899C29.5201 36.9258 29.0318 35.6499 29.0459 34.33C29.0268 33.015 29.5145 31.7431 30.4079 30.778C31.2121 29.8355 31.7722 28.7098 32.0389 27.5Z" fill="white"/>
<path d="M0.915995 30.6049C0.493019 32.9818 0.331057 35.3979 0.432995 37.8099C0.614187 45.1324 4.25644 51.9354 10.25 56.1459C14.0243 58.6655 18.462 60.007 23 59.9999C32.5844 59.9607 41.1536 54.0197 44.552 45.0579C45.4987 42.1268 45.9344 39.0547 45.84 35.9759C45.6674 31.5983 44.613 27.3004 42.74 23.3399C40.0225 17.6335 36.6451 12.2655 32.677 7.34594C32.086 6.58594 31.488 5.75094 30.877 4.90194C29.8212 3.36337 28.6759 1.88816 27.447 0.483936C27.0632 0.0651651 26.4759 -0.100915 25.9296 0.0549074C25.3834 0.21073 24.9721 0.66172 24.867 1.21994C24.767 1.74094 24.667 2.31294 24.556 2.91994C23.856 6.81994 22.437 14.9279 20.056 14.8089C18.975 14.7489 18.619 13.0759 18.29 11.0309C18.1618 10.2221 18.078 9.40691 18.039 8.58894C18.0082 7.91698 17.5324 7.34833 16.8765 7.19945C16.2205 7.05056 15.5458 7.35811 15.228 7.95094C13.7852 10.7324 12.9804 13.8004 12.872 16.9319C12.8069 18.3263 12.852 19.7237 13.007 21.1109C13.2481 22.325 13.0785 23.5848 12.525 24.6919C12.3999 24.8616 12.2072 24.9686 11.997 24.9849C11.7749 25.0184 11.5493 24.9526 11.38 24.8049C10.342 23.9539 10.08 20.9349 9.988 19.9459C9.89967 18.8423 9.87596 17.7344 9.917 16.6279C9.94336 15.9638 9.52947 15.3614 8.89999 15.1479C8.27894 14.9361 7.59251 15.1574 7.212 15.6919C4.06133 20.1262 1.91673 25.1949 0.927995 30.5439C0.922995 30.5639 0.918995 30.5849 0.915995 30.6049ZM7.9 18.2319C7.91 18.8906 7.94066 19.5196 7.992 20.1189C8.204 22.5189 8.62199 25.1299 10.108 26.3499C10.6931 26.8364 11.4523 27.0613 12.208 26.9719C12.9459 26.8977 13.6218 26.5261 14.08 25.9429C15.246 24.4919 15.105 21.9259 14.991 20.8899C14.8478 19.6079 14.806 18.3166 14.866 17.0279C14.9544 14.8233 15.4061 12.6484 16.203 10.5909C16.236 10.8539 16.273 11.1159 16.316 11.3779C16.654 13.4779 17.164 16.6509 19.941 16.8049C24.015 17.0219 25.417 9.40494 26.521 3.27394C26.5617 3.0446 26.602 2.82127 26.642 2.60394C27.529 3.66694 28.402 4.88294 29.251 6.06794C29.875 6.93794 30.49 7.79494 31.096 8.57394C34.9677 13.3726 38.2638 18.6082 40.917 24.1739C42.6783 27.8906 43.6718 31.9244 43.838 36.0339C43.927 38.8691 43.5303 41.6986 42.665 44.3999C39.5522 52.563 31.7363 57.9683 23 57.9999C18.8571 58.0069 14.8056 56.7824 11.36 54.4819C5.89567 50.6264 2.58261 44.4088 2.43 37.7229C2.33439 35.4578 2.48662 33.189 2.884 30.9569C2.884 30.9399 2.892 30.9229 2.895 30.9059C3.72463 26.3964 5.42461 22.0916 7.9 18.2319Z" fill="white"/>
</svg>
