<svg width="60" height="60" viewBox="0 0 60 60" fill="none" xmlns="http://www.w3.org/2000/svg">
<path d="M59.0746 12.1063H54.1893C54.3312 11.9072 54.4598 11.698 54.5724 11.4787C55.2188 10.2162 55.3062 8.72937 54.8123 7.3991L53.3319 3.4202C52.8384 2.09131 51.8016 1.02288 50.4882 0.489128C49.1735 -0.0450838 47.6844 -0.00251165 46.4022 0.606316L34.6862 6.17046C34.1071 5.75664 33.3989 5.51219 32.6345 5.51219H27.3665C26.602 5.51219 25.8934 5.75709 25.3143 6.17091L13.5988 0.605859C12.3165 -0.0025116 10.8274 -0.0450838 9.51273 0.489128C8.19941 1.02288 7.16257 2.09131 6.6691 3.41974L5.18868 7.39956C4.69475 8.72937 4.78219 10.2162 5.42901 11.4787C5.54116 11.698 5.67025 11.9076 5.81216 12.1063H0.926426C0.415102 12.1063 0.000366211 12.5206 0.000366211 13.0324V19.6988C0.000366211 20.2101 0.415102 20.6249 0.926426 20.6249C1.43775 20.6249 1.85249 20.2101 1.85249 19.6988V13.958H8.28455C8.38755 13.9941 8.49192 14.0275 8.59766 14.0568L16.3719 16.1969C14.6443 18.8442 13.1204 21.6287 11.8158 24.514H1.85249V23.4026C1.85249 22.8913 1.43775 22.477 0.926426 22.477C0.415102 22.477 0.000366211 22.8913 0.000366211 23.4026V25.4401C0.000366211 25.9514 0.415102 26.3662 0.926426 26.3662H4.22875V59.15C4.22875 59.6617 4.64348 60.076 5.15481 60.076H54.8462C55.3575 60.076 55.7722 59.6617 55.7722 59.15V53.773C55.7722 53.2617 55.3575 52.847 54.8462 52.847C54.3344 52.847 53.9201 53.2617 53.9201 53.773V58.2243H35.5559V26.9356C38.1789 31.9037 39.9546 37.3058 40.7717 42.8874C40.8257 43.2568 41.0967 43.5575 41.4588 43.65C41.5348 43.6697 41.6117 43.6788 41.6882 43.6788C41.9743 43.6788 42.2498 43.5461 42.4275 43.3103C43.7586 41.5443 44.9964 39.6537 46.1138 37.6798C47.9852 38.9543 49.8021 40.3752 51.526 41.9132C51.8167 42.1723 52.2387 42.2222 52.5816 42.0373C52.9245 41.8528 53.1154 41.4733 53.0586 41.0879C52.3193 36.0447 50.941 31.0853 48.9872 26.3662H53.9197V50.0688C53.9197 50.5806 54.3344 50.9949 54.8457 50.9949C55.3575 50.9949 55.7718 50.5806 55.7718 50.0688V26.3662H59.0746C59.5859 26.3662 60.0002 25.9514 60.0002 25.4401V13.0324C60.0006 12.5206 59.5863 12.1063 59.0746 12.1063ZM47.1965 2.27899C48.0227 1.88714 48.9437 1.86059 49.7911 2.20483C50.637 2.54862 51.2779 3.20917 51.596 4.06565L53.076 8.04409C53.3946 8.90103 53.3401 9.82114 52.9236 10.6346C52.5075 11.4476 51.7929 12.0289 50.9121 12.2711L36.1716 16.3292V11.8788C39.4849 9.84998 47.7449 5.66554 49.8007 8.56732C50.0959 8.98434 50.6736 9.08368 51.0911 8.78796C51.5086 8.49224 51.6075 7.91409 51.3118 7.49706C49.7252 5.25721 46.3816 5.14827 41.3732 7.17388C39.3101 8.00793 37.4053 9.026 36.1716 9.73233V9.04889C36.1716 8.55313 36.0686 8.08071 35.8837 7.65179L47.1965 2.27899ZM27.3665 7.36385H32.6345C33.5637 7.36385 34.3195 8.12008 34.3195 9.04889V16.7032C34.3195 17.6324 33.5637 18.3882 32.6345 18.3882H27.3665C26.4372 18.3882 25.6815 17.6324 25.6815 16.7032V9.04889C25.6815 8.11962 26.4372 7.36385 27.3665 7.36385ZM25.8101 24.5136C26.6959 23.0419 27.6599 21.6155 28.6972 20.2403H31.3028C32.3406 21.6155 33.3046 23.0419 34.19 24.5136H25.8101ZM7.07742 10.6346C6.66086 9.82114 6.60638 8.90103 6.92453 8.04455L8.4054 4.06519C8.72309 3.20917 9.36396 2.54862 10.2099 2.20483C11.0568 1.86059 11.9783 1.88714 12.8041 2.27899L24.1173 7.6527C23.9324 8.08117 23.8294 8.55313 23.8294 9.04934V9.78543C22.5998 9.07773 20.652 8.02944 18.5362 7.17388C13.5283 5.14827 10.1843 5.25721 8.59766 7.49706C8.30194 7.91409 8.40082 8.49224 8.8183 8.78796C9.23579 9.08368 9.81349 8.9848 10.1087 8.56732C12.1838 5.63807 20.5797 9.92917 23.8294 11.9351V16.3292L9.0893 12.2716C8.2081 12.0289 7.49353 11.4476 7.07742 10.6346ZM24.245 18.3644C24.706 19.2268 25.5135 19.8773 26.4807 20.1277C22.1498 26.1702 19.1684 33.1132 17.7699 40.4109C16.7862 38.9735 15.8665 37.467 15.0247 35.911C14.9016 35.6831 14.6891 35.5173 14.4378 35.4537C14.187 35.3901 13.921 35.4345 13.7045 35.5759C12.1623 36.5817 10.6521 37.6849 9.19367 38.8696C10.6956 30.9859 13.7988 23.3843 18.2487 16.7137L24.245 18.3644ZM6.08087 26.3662H11.0137C9.06 31.0853 7.68167 36.0442 6.94192 41.0879C6.88562 41.4733 7.07605 41.8528 7.41891 42.0373C7.76224 42.2218 8.18384 42.1723 8.47452 41.9132C10.1985 40.3752 12.0153 38.9543 13.8871 37.6798C15.0045 39.6537 16.2419 41.5438 17.5735 43.3103C17.7511 43.5461 18.0267 43.6793 18.3128 43.6793C18.3893 43.6793 18.4662 43.6697 18.5422 43.65C18.9043 43.5575 19.1748 43.2568 19.2288 42.8874C20.0464 37.3058 21.8221 31.9033 24.4446 26.9352V58.2243H6.08087V26.3662ZM26.2967 58.2243V26.3662H33.7043V58.2243H26.2967ZM46.2965 35.5759C46.08 35.4345 45.8135 35.3905 45.5631 35.4542C45.3123 35.5178 45.0994 35.6835 44.9763 35.911C44.1345 37.467 43.2148 38.9739 42.2311 40.4109C40.8326 33.1127 37.8512 26.1702 33.5198 20.1282C34.487 19.8782 35.295 19.2273 35.756 18.3644L41.7536 16.7133C46.2026 23.3852 49.3058 30.9868 50.8078 38.8696C49.3489 37.6849 47.8387 36.5817 46.2965 35.5759ZM58.1485 24.514H48.1857C46.8811 21.6287 45.3572 18.8442 43.63 16.1969L51.4033 14.0568C51.5091 14.0275 51.6134 13.9941 51.7164 13.958H58.1485V24.514Z" fill="white"/>
</svg>
