<svg width="67" height="79" viewBox="0 0 67 79" fill="none" xmlns="http://www.w3.org/2000/svg">
<path d="M38.1159 7.07205H39.4362C39.9406 7.07205 40.3497 6.66293 40.3497 6.15858C40.3497 5.65423 39.9406 5.24512 39.4362 5.24512H38.1159C37.6115 5.24512 37.2024 5.65423 37.2024 6.15858C37.2024 6.66293 37.6115 7.07205 38.1159 7.07205Z" fill="white"/>
<path d="M18.9821 7.07205H33.4434C33.9478 7.07205 34.3569 6.66293 34.3569 6.15858C34.3569 5.65423 33.9478 5.24512 33.4434 5.24512H18.9821C18.4777 5.24512 18.0686 5.65423 18.0686 6.15858C18.0686 6.66293 18.4777 7.07205 18.9821 7.07205Z" fill="white"/>
<path d="M29.2129 67.8898C27.4548 67.8898 26.0251 69.3196 26.0251 71.0765C26.0251 72.8346 27.455 74.2642 29.2129 74.2642C30.9663 74.2642 32.3931 72.8344 32.3931 71.0765C32.3931 69.3196 30.9663 67.8898 29.2129 67.8898ZM29.2129 72.4372C28.4624 72.4372 27.8521 71.827 27.8521 71.0763C27.8521 70.3269 28.4623 69.7167 29.2129 69.7167C29.9587 69.7167 30.5661 70.3269 30.5661 71.0763C30.5661 71.827 29.9589 72.4372 29.2129 72.4372Z" fill="white"/>
<path d="M29.204 13.5703C26.3118 13.5703 23.959 15.9279 23.959 18.8255C23.959 21.7184 26.3118 24.0712 29.204 24.0712C32.1023 24.0712 34.4599 21.7184 34.4599 18.8255C34.4599 15.9279 32.1022 13.5703 29.204 13.5703ZM29.204 22.2441C27.3192 22.2441 25.7861 20.7108 25.7861 18.8255C25.7861 16.9355 27.3194 15.3974 29.204 15.3974C31.0947 15.3974 32.6328 16.9355 32.6328 18.8255C32.6328 20.7108 31.0947 22.2441 29.204 22.2441Z" fill="white"/>
<path d="M20.0752 36.4181C20.0752 36.9225 20.4843 37.3316 20.9887 37.3316H37.4293H37.4536C37.958 37.3316 38.3671 36.9225 38.3671 36.4181C38.3671 36.3431 38.3583 36.2707 38.341 36.2004C38.247 30.0686 34.1825 25.1167 29.1997 25.1167C24.1682 25.1167 20.0752 30.1863 20.0752 36.4181ZM36.482 35.5045H21.9361C22.2907 30.7073 25.413 26.9436 29.1999 26.9436C32.9961 26.9438 36.1263 30.7073 36.482 35.5045Z" fill="white"/>
<path d="M12.3329 44.8576H46.0855C46.5899 44.8576 46.999 44.4485 46.999 43.9441C46.999 43.4398 46.5899 43.0306 46.0855 43.0306H12.3329C11.8285 43.0306 11.4194 43.4398 11.4194 43.9441C11.4194 44.4483 11.8285 44.8576 12.3329 44.8576Z" fill="white"/>
<path d="M12.3329 53.234H46.0855C46.5899 53.234 46.999 52.8249 46.999 52.3206C46.999 51.8162 46.5899 51.4071 46.0855 51.4071H12.3329C11.8285 51.4071 11.4194 51.8162 11.4194 52.3206C11.4194 52.8249 11.8285 53.234 12.3329 53.234Z" fill="white"/>
<path d="M37.578 59.7845H20.84C20.3356 59.7845 19.9265 60.1937 19.9265 60.698C19.9265 61.2024 20.3356 61.6115 20.84 61.6115H37.578C38.0824 61.6115 38.4915 61.2024 38.4915 60.698C38.4917 60.1938 38.0824 59.7845 37.578 59.7845Z" fill="white"/>
<path d="M0.67041 6.61279V72.3873C0.67041 75.5775 3.26589 78.173 6.45606 78.173H51.9621C55.1522 78.173 57.7477 75.5775 57.7477 72.3873V29.254C62.5555 28.7952 66.3293 24.7316 66.3293 19.7997C66.3293 14.8732 62.5555 10.8155 57.7477 10.357V6.61279C57.7477 3.42263 55.1522 0.827148 51.9621 0.827148H6.45606C3.26589 0.827148 0.67041 3.42263 0.67041 6.61279ZM56.8409 12.138C61.0654 12.138 64.5025 15.5745 64.5025 19.7997C64.5025 24.0306 61.0654 27.4731 56.8409 27.4731C52.6093 27.4731 49.1668 24.0308 49.1668 19.7997C49.1668 15.5745 52.6091 12.138 56.8409 12.138ZM2.4975 6.61279C2.4975 4.43007 4.27349 2.65408 6.45622 2.65408H51.9622C54.145 2.65408 55.921 4.43007 55.921 6.61279V10.3575C51.1122 10.8212 47.3399 14.8772 47.3399 19.7995C47.3399 24.7275 51.1121 28.7889 55.921 29.2534V72.3873C55.921 74.5701 54.145 76.346 51.9622 76.346H6.45606C4.27333 76.346 2.49734 74.5701 2.49734 72.3873V6.61279H2.4975Z" fill="white"/>
<path d="M54.8646 22.7163C55.2215 23.0732 55.7996 23.0732 56.1563 22.7163L60.6871 18.1855C61.044 17.8286 61.044 17.2505 60.6871 16.8938C60.3302 16.5369 59.7521 16.5369 59.3954 16.8938L55.5105 20.7786L54.274 19.5427C53.9171 19.1858 53.339 19.1858 52.9823 19.5427C52.6254 19.8996 52.6254 20.4777 52.9823 20.8345L54.8646 22.7163Z" fill="white"/>
</svg>
