<svg width="28" height="29" viewBox="0 0 28 29" fill="none" xmlns="http://www.w3.org/2000/svg">
<path d="M27.7352 26.9767L20.506 19.8631C22.3991 17.8063 23.5623 15.0862 23.5623 12.093C23.5614 5.68993 18.2874 0.5 11.7811 0.5C5.27483 0.5 0.000854492 5.68993 0.000854492 12.093C0.000854492 18.496 5.27483 23.6859 11.7811 23.6859C14.5923 23.6859 17.1706 22.7136 19.1959 21.097L26.4531 28.2387C26.8067 28.5871 27.3807 28.5871 27.7344 28.2387C28.0888 27.8904 28.0888 27.325 27.7352 26.9767ZM11.7811 21.9023C6.27609 21.9023 1.81341 17.5105 1.81341 12.093C1.81341 6.67541 6.27609 2.28364 11.7811 2.28364C17.2862 2.28364 21.7488 6.67541 21.7488 12.093C21.7488 17.5105 17.2862 21.9023 11.7811 21.9023Z" fill="black"/>
</svg>
