<svg width="60" height="60" viewBox="0 0 60 60" fill="none" xmlns="http://www.w3.org/2000/svg">
<path d="M40.2635 0C39.0159 0 39.0036 1.87336 40.2706 1.87317C47.2154 1.87215 53.5248 5.89217 56.4586 12.182C59.3925 18.4719 58.4079 25.8833 53.9428 31.2012C49.9314 35.9787 43.766 38.2699 37.6907 37.3865L39.1702 36.3263C40.2146 35.5719 39.1225 34.0625 38.0824 34.8029L34.8507 37.1155C34.4239 37.4156 34.3243 38.0067 34.6293 38.4302L36.9473 41.662C37.6725 42.6989 39.2208 41.5879 38.4707 40.5689L37.5333 39.2615C44.2085 40.191 50.977 37.6522 55.382 32.406C60.3125 26.5337 61.3923 18.3354 58.1523 11.3891C54.7437 4.15917 47.6505 0 40.2635 0ZM40.3121 6.55336C33.0727 6.55336 27.191 12.4632 27.191 19.7241C27.191 26.9851 33.0727 32.8931 40.3121 32.8931C47.5514 32.8931 53.4404 26.9851 53.4404 19.7241C53.4404 12.4632 47.5514 6.55336 40.3121 6.55336ZM40.3121 8.43018C46.5343 8.43018 51.5655 13.4727 51.5655 19.7241C51.5655 25.9756 46.5343 31.0181 40.3121 31.0181C34.0898 31.0181 29.0678 25.9756 29.0678 19.7241C29.0678 13.4727 34.0898 8.43018 40.3121 8.43018ZM40.3156 11.2518C39.8562 11.2491 39.3952 11.558 39.3745 12.1875V13.169C37.5378 13.5826 36.1427 15.1828 36.1427 17.146C36.1427 18.5283 36.8404 19.3183 37.679 19.7278C38.5175 20.1373 39.4102 20.1966 40.2186 20.2808C41.027 20.3651 41.7543 20.4735 42.1283 20.6561C42.3597 20.7847 42.6135 20.9091 42.6135 21.5479C42.6135 22.7449 41.6278 23.7442 40.3504 23.7561C39.2781 23.7349 38.4367 23.0765 38.08 21.9012C37.6687 20.7202 35.9488 21.2678 36.2892 22.4689C36.8924 24.3376 38.1477 25.1985 39.3745 25.5139V26.25C39.4414 27.517 41.2311 27.4713 41.2494 26.25V25.5231C43.0898 25.1107 44.4884 23.4919 44.4885 21.5479C44.4885 20.1839 43.7908 19.3829 42.9523 18.9734C42.1137 18.5639 41.2211 18.5046 40.4127 18.4204C39.6043 18.3361 38.8769 18.2224 38.5029 18.0396C38.2248 17.9039 38.0177 17.7239 38.0177 17.146C38.0177 15.927 39.0035 14.9717 40.2808 14.9597C41.4301 15.0044 42.1762 15.6082 42.5513 16.7944C42.9517 17.9529 44.6637 17.4603 44.3438 16.2323C43.8797 14.7643 42.8924 13.6059 41.2494 13.1891V12.1875C41.2317 11.5688 40.775 11.2545 40.3156 11.2518ZM13.5242 39.4666C12.4492 39.9813 11.5597 40.4365 10.8876 40.7996C10.4013 39.9512 9.48146 39.3769 8.44318 39.3769H2.81829C1.24018 39.3769 0.000366211 40.6529 0.000366211 42.1949V55.3144C0.000366211 56.8563 1.25052 58.1324 2.81829 58.1324H8.44317C9.98504 58.1324 11.2542 56.8908 11.252 55.3144L11.2538 55.1532C13.0825 54.857 14.8258 54.4588 16.8787 54.3804C18.0376 54.3805 20.2058 56.0229 21.6137 57.0172C23.62 58.4334 25.7811 60 28.1248 60C28.8302 60 29.5371 59.7679 30.4703 59.4195C35.5991 57.5021 46.4172 51.3819 52.7189 47.6953C54.1143 46.9236 54.6908 45.2653 54.2094 43.8171C54.1406 43.6102 54.051 43.4061 53.9383 43.211C53.074 41.7139 51.3194 41.3493 49.6135 41.9311L36.4942 46.474C36.2646 45.5025 35.647 44.6325 34.7199 44.0972C31.0532 42.1311 27.2515 40.1109 23.5013 38.5821C22.3218 38.134 20.9317 37.514 19.5724 37.5006C18.2131 37.4872 15.5801 38.4823 13.5242 39.4666ZM22.804 40.318C26.647 41.9499 30.0133 43.675 33.779 45.7233C34.831 46.3307 34.8969 47.5459 34.4712 48.2831C33.9714 49.1488 32.8177 49.4973 31.9041 48.9698L26.2206 45.6885C25.1078 44.9353 24.0771 46.7238 25.2868 47.309L30.9684 50.5884C32.7535 51.6191 35.061 51.004 36.0916 49.2188C36.2266 48.9849 36.3396 48.7341 36.4194 48.4864L50.227 43.7018C51.4329 43.2915 52.1458 43.7125 52.3986 44.3189C52.6516 44.9255 52.4443 45.718 51.8127 46.0547C44.48 50.2814 34.9366 55.7053 29.8149 57.6618C28.9618 57.98 28.272 58.1324 28.1249 58.1324C26.7187 58.1324 24.6702 56.8846 22.6922 55.4883C21.3507 54.5855 18.9285 52.5393 16.8788 52.5055C15.3621 52.5091 12.8945 52.9472 11.2539 53.249V42.7442C11.2539 42.7442 12.819 41.8735 14.3245 41.1622C16.2689 40.2433 18.4025 39.3769 19.4725 39.3839C20.5426 39.391 21.8749 39.944 22.804 40.318ZM2.81843 41.2519H8.44331C8.99172 41.2519 9.37698 41.6958 9.37698 42.1967C9.37698 47.0416 9.37886 54.3835 9.37886 55.3144C9.37886 55.8243 8.96597 56.2572 8.44504 56.2574L2.81833 56.2592C2.31565 56.2594 1.87722 55.85 1.87714 55.3144L1.87533 42.1949C1.87525 41.6189 2.33833 41.2519 2.81843 41.2519ZM3.75225 53.4412C3.75223 53.959 4.172 54.3787 4.68972 54.3787C5.20744 54.3787 5.62903 53.9846 5.62903 53.4412C5.62903 52.8978 5.19647 52.5037 4.67984 52.5037C4.16321 52.5037 3.75227 52.9235 3.75225 53.4412Z" fill="white"/>
</svg>
