<svg width="81" height="81" viewBox="0 0 81 81" fill="none" xmlns="http://www.w3.org/2000/svg">
<path d="M75.0674 4.93277H62.5364C62.0596 2.13606 59.6203 0 56.6899 0H24.3101C21.3797 0 18.9404 2.13606 18.4634 4.93277H5.93262C2.66129 4.93277 0 7.59407 0 10.8654V58.2694C0 61.5407 2.66129 64.202 5.93262 64.202H32.3162V69.9951H32.213C28.3858 69.9951 25.2718 73.1088 25.2718 76.9361V79.0462C25.2718 80.1236 26.1483 81 27.2257 81H53.774C54.8514 81 55.7278 80.1236 55.7278 79.0462V76.9361C55.7278 73.1088 52.6141 69.9951 48.7868 69.9951H48.6838V64.202H62.7699C63.4254 64.202 63.9565 63.6709 63.9565 63.0155C63.9565 62.36 63.4254 61.8289 62.7699 61.8289H5.93262C3.96979 61.8289 2.37305 60.232 2.37305 58.2694V10.8654C2.37305 8.90272 3.96979 7.30582 5.93262 7.30582H18.3775V9.67887H6.56543C5.56226 9.67887 4.74609 10.495 4.74609 11.4982V57.6366C4.74609 58.6397 5.56226 59.4559 6.56543 59.4559H74.4346C75.4377 59.4559 76.2539 58.6397 76.2539 57.6366V11.4982C76.2539 10.495 75.4377 9.67887 74.4346 9.67887H62.6225V7.30582H75.0674C77.0301 7.30582 78.627 8.90272 78.627 10.8654V58.2694C78.627 60.232 77.0301 61.8289 75.0674 61.8289H68.3072C67.6518 61.8289 67.1207 62.36 67.1207 63.0155C67.1207 63.6709 67.6518 64.202 68.3072 64.202H75.0674C78.3387 64.202 81 61.5407 81 58.2694V10.8654C81 7.59407 78.3387 4.93277 75.0674 4.93277ZM34.6892 64.202H46.3108V69.9951H34.6892V64.202ZM33.5027 72.3684C33.5047 72.3684 33.5068 72.3681 33.5088 72.3681H47.4913C47.4934 72.3681 47.4953 72.3684 47.4975 72.3684C47.4997 72.3684 47.5016 72.3681 47.5037 72.3681H48.7872C51.3059 72.3681 53.3551 74.4173 53.3551 76.9361V78.627H27.645V76.9361C27.645 74.4173 29.6943 72.3681 32.2132 72.3681H33.4967C33.4986 72.3681 33.5006 72.3684 33.5027 72.3684ZM60.2494 57.0822H20.7506V21.9379C20.7506 21.2824 20.2193 20.7513 19.564 20.7513C18.9088 20.7513 18.3775 21.2824 18.3775 21.9379V57.0829H7.11914V12.0519H18.3775V16.4008C18.3775 17.0562 18.9088 17.5873 19.564 17.5873C20.2193 17.5873 20.7506 17.0562 20.7506 16.4008V5.93262C20.7506 3.96995 22.3473 2.37305 24.3101 2.37305H56.6899C58.6525 2.37305 60.2494 3.96995 60.2494 5.93262V57.0822ZM73.8809 12.0519V57.0829H62.6225V12.0519H73.8809ZM54.1618 49.9922H26.8381C26.1828 49.9922 25.6515 50.5233 25.6515 51.1787C25.6515 51.8341 26.1828 52.3652 26.8381 52.3652H54.1618C54.8172 52.3652 55.3483 51.8341 55.3483 51.1787C55.3483 50.5233 54.8172 49.9922 54.1618 49.9922ZM54.1618 42.873H26.8381C26.1828 42.873 25.6515 43.4041 25.6515 44.0596C25.6515 44.715 26.1828 45.2461 26.8381 45.2461H54.1618C54.8172 45.2461 55.3483 44.715 55.3483 44.0596C55.3483 43.4041 54.8172 42.873 54.1618 42.873ZM48.4722 15.8516C47.0648 14.5711 44.8873 14.6442 43.5142 16.017L38.1092 21.422L37.4385 20.7512C36.073 19.3718 33.7737 19.3816 32.4043 20.751C31.0165 22.1388 31.0164 24.397 32.4043 25.7849L35.0331 28.4141C35.8539 29.2345 36.9461 29.6862 38.1091 29.6862C39.2722 29.6862 40.3646 29.2344 41.1855 28.4136L48.5956 21.0034C50.0173 19.5935 49.9414 17.1886 48.4722 15.8516ZM46.9175 19.3253L39.5074 26.7355C39.1349 27.1079 38.6383 27.3131 38.1091 27.3131C37.5799 27.3131 37.0833 27.1081 36.711 26.736L34.0823 24.1071C33.6197 23.6444 33.6197 22.8917 34.0823 22.4292C34.5389 21.9727 35.3059 21.9701 35.7604 22.4291L36.9344 23.6033C37.2481 23.9171 37.6653 24.0901 38.1091 24.0901C38.5528 24.0901 38.9699 23.9173 39.2837 23.6036L45.1923 17.6952C45.6598 17.2274 46.4149 17.1883 46.875 17.6067C47.3684 18.0556 47.3935 18.855 46.9175 19.3253ZM40.5 7.11914C32.1255 7.11914 25.3125 13.9322 25.3125 22.3066C25.3125 30.6811 32.1255 37.4941 40.5 37.4941C48.8745 37.4941 55.6875 30.6811 55.6875 22.3066C55.6875 13.9322 48.8745 7.11914 40.5 7.11914ZM40.5 35.1211C33.434 35.1211 27.6855 29.3725 27.6855 22.3066C27.6855 15.2408 33.434 9.49219 40.5 9.49219C47.5658 9.49219 53.3145 15.2408 53.3145 22.3066C53.3145 29.3725 47.5658 35.1211 40.5 35.1211Z" fill="white"/>
</svg>
