<svg width="58" height="58" viewBox="0 0 58 58" fill="none" xmlns="http://www.w3.org/2000/svg">
<path d="M49.5165 8.48633C38.2029 -2.82832 19.796 -2.82832 8.48462 8.48359C-2.82893 19.7955 -2.82784 38.203 8.48571 49.5171C19.796 60.8285 38.2029 60.8285 49.5154 49.5149C60.8278 38.203 60.8273 19.7966 49.5165 8.48633ZM46.3507 46.3513C36.7838 55.9182 21.2167 55.9193 11.6493 46.3524C2.08028 36.7839 2.08137 21.2152 11.6493 11.6483C21.2162 2.08199 36.7827 2.08089 46.3518 11.6494C55.9186 21.2163 55.9175 36.785 46.3507 46.3513ZM42.1179 40.4687C42.4778 41.3004 42.095 42.2657 41.2637 42.625C40.4319 42.9859 39.4667 42.602 39.1069 41.7707C37.5248 38.1128 33.7859 35.7487 29.58 35.7487C25.2772 35.7487 21.5153 38.1106 19.9978 41.7664C19.7358 42.3975 19.125 42.7786 18.4824 42.7786C18.2724 42.7786 18.0597 42.7382 17.8535 42.6528C17.0168 42.305 16.6203 41.3447 16.9676 40.5086C18.9965 35.624 23.9478 32.468 29.58 32.468C35.0945 32.468 40.0163 35.6081 42.1179 40.4687ZM18.1778 21.1479C18.1778 19.2754 19.6965 17.7568 21.5689 17.7568C23.4408 17.7568 24.9595 19.2749 24.9595 21.1479C24.9595 23.0215 23.4408 24.5396 21.5689 24.5396C19.6965 24.5396 18.1778 23.0215 18.1778 21.1479ZM33.554 21.1479C33.554 19.2754 35.0738 17.7568 36.9462 17.7568C38.8181 17.7568 40.3368 19.2749 40.3368 21.1479C40.3368 23.0215 38.8187 24.5396 36.9462 24.5396C35.0738 24.5396 33.554 23.0215 33.554 21.1479Z" fill="white"/>
</svg>
