<svg width="100%" height="100%" viewBox="0 0 76 44" fill="none" xmlns="http://www.w3.org/2000/svg">
<path d="M6.03178 40.2759C6.26043 40.5618 6.37476 40.9047 6.37476 41.3049C6.37476 41.7622 6.20327 42.1623 5.91745 42.4481C5.63164 42.7339 5.2315 43.0198 4.71703 43.1913C4.20256 43.3627 3.63093 43.4771 3.00214 43.4771C2.48767 43.4771 2.03037 43.4199 1.5159 43.3056C1.00143 43.1913 0.486967 43.0198 0.0296631 42.7911L0.658456 41.362C1.00143 41.5335 1.34441 41.6479 1.68739 41.7622C2.03037 41.8765 2.43051 41.8765 2.77349 41.8765C3.23079 41.8765 3.57377 41.8193 3.85959 41.6479C4.1454 41.4764 4.31689 41.3049 4.31689 41.0191C4.31689 40.7904 4.20256 40.6189 4.03107 40.5618C3.85959 40.5046 3.63093 40.3903 3.28796 40.3903H1.45874V38.904H3.11647C3.40228 38.904 3.63093 38.8469 3.74526 38.7325C3.91675 38.6182 3.97391 38.5039 3.97391 38.2752C3.97391 38.0466 3.85959 37.8751 3.63093 37.7608C3.40228 37.6464 3.11647 37.5893 2.71633 37.5893C2.43051 37.5893 2.08753 37.6464 1.74455 37.7036C1.40158 37.7608 1.0586 37.9323 0.772782 38.0466L0.201152 36.5032C0.944271 36.103 1.80172 35.9315 2.71633 35.9315C3.28796 35.9315 3.85959 36.0459 4.37405 36.1602C4.88852 36.2745 5.28866 36.5603 5.57448 36.9033C5.86029 37.2463 6.03178 37.5893 6.03178 38.0466C6.03178 38.3896 5.97462 38.6754 5.74597 38.9612C5.51731 39.247 5.34582 39.4185 5.00285 39.59C5.46015 39.7615 5.80313 39.9901 6.03178 40.2759Z" fill="black"/>
<path d="M15.2922 41.7622V43.3627H9.51874V36.103H15.1779V37.7036H11.5194V38.904H14.7206V40.4474H11.5194V41.7622H15.2922Z" fill="black"/>
<path d="M23.5237 36.446C23.981 36.6747 24.3811 36.9605 24.6098 37.3606C24.8956 37.7608 25.0099 38.2181 25.0099 38.7897C25.0099 39.3042 24.8956 39.8186 24.6098 40.2188C24.324 40.6189 23.981 40.9047 23.5237 41.1334C23.0664 41.362 22.4948 41.4764 21.8088 41.4764H20.5512V43.3627H18.4933V36.103H21.8088C22.4948 36.103 23.0664 36.2174 23.5237 36.446ZM22.6662 39.59C22.8949 39.4185 23.0092 39.1327 23.0092 38.7897C23.0092 38.4467 22.8949 38.2181 22.6662 37.9894C22.4376 37.8179 22.1518 37.7036 21.6945 37.7036H20.5512V39.8186H21.6945C22.0946 39.8186 22.4376 39.7615 22.6662 39.59Z" fill="black"/>
<path d="M34.842 36.103V43.3056H32.7841V40.5046H29.9831V43.3056H27.9252V36.103H29.9831V38.7897H32.7841V36.103H34.842Z" fill="black"/>
<path d="M39.9294 43.0198C39.3007 42.6768 38.8433 42.2766 38.5004 41.705C38.1574 41.1334 37.9859 40.5046 37.9859 39.7615C37.9859 39.0183 38.1574 38.3896 38.5004 37.8179C38.8433 37.2463 39.3007 36.789 39.9294 36.5032C40.5582 36.2174 41.2442 36.0459 41.9873 36.0459C42.7304 36.0459 43.4164 36.2174 44.0452 36.5032C44.674 36.8461 45.1313 37.2463 45.4743 37.8179C45.8172 38.3896 45.9887 39.0183 45.9887 39.7615C45.9887 40.5046 45.8172 41.1334 45.4743 41.705C45.1313 42.2766 44.674 42.7339 44.0452 43.0198C43.4164 43.3056 42.7304 43.4771 41.9873 43.4771C41.2442 43.4771 40.5582 43.3056 39.9294 43.0198ZM42.9591 41.5335C43.2449 41.362 43.4736 41.1334 43.645 40.7904C43.8165 40.4474 43.8737 40.1044 43.8737 39.7043C43.8737 39.3042 43.7594 38.9612 43.645 38.6182C43.4736 38.2752 43.2449 38.0466 42.9591 37.8751C42.6733 37.7036 42.3303 37.6464 41.9873 37.6464C41.6443 37.6464 41.3014 37.7608 41.0155 37.8751C40.7297 38.0466 40.5011 38.2752 40.3296 38.6182C40.1581 38.9612 40.1009 39.3042 40.1009 39.7043C40.1009 40.1044 40.2153 40.4474 40.3296 40.7904C40.5011 41.1334 40.7297 41.362 41.0155 41.5335C41.3014 41.705 41.6443 41.7622 41.9873 41.7622C42.3303 41.7622 42.6733 41.705 42.9591 41.5335Z" fill="black"/>
<path d="M55.3635 40.2188C55.5921 40.5046 55.7064 40.8476 55.7064 41.3049C55.7064 41.9337 55.4778 42.4481 54.9633 42.7911C54.4489 43.1341 53.7629 43.3627 52.8483 43.3627H49.1327V36.103H52.6196C53.4771 36.103 54.163 36.2745 54.6203 36.5603C55.0776 36.9033 55.3635 37.3606 55.3635 37.9322C55.3635 38.2752 55.2491 38.6182 55.1348 38.8468C54.9633 39.1327 54.7347 39.3042 54.3917 39.4756C54.849 39.7043 55.1348 39.9329 55.3635 40.2188ZM51.1334 39.0183H52.4481C53.0198 39.0183 53.3056 38.7897 53.3056 38.3324C53.3056 37.8751 53.0198 37.6464 52.4481 37.6464H51.1334V39.0183ZM53.6486 41.1334C53.6486 40.6761 53.3628 40.3903 52.734 40.3903H51.1334V41.8765H52.734C53.3628 41.8765 53.6486 41.6478 53.6486 41.1334Z" fill="black"/>
<path d="M63.8236 41.9337H60.7939L60.2223 43.3056H58.1644L61.3656 36.103H63.3663L66.5674 43.3056H64.4524L63.8236 41.9337ZM63.2519 40.4474L62.3373 38.1609L61.4227 40.4474H63.2519Z" fill="black"/>
<path d="M75.0276 36.103V43.3056H73.0269V41.4764H71.9408L70.7403 43.3056H68.6253L70.1115 41.1905C69.6542 40.9619 69.2541 40.6761 69.0254 40.2759C68.7968 39.8758 68.6253 39.4185 68.6253 38.8469C68.6253 38.2752 68.7396 37.8179 69.0254 37.3606C69.3113 36.9033 69.6542 36.6175 70.1687 36.3888C70.6832 36.1602 71.2548 36.0459 71.8836 36.0459C71.8264 36.103 75.0276 36.103 75.0276 36.103ZM70.626 38.8469C70.626 39.1898 70.7403 39.4756 70.9118 39.6471C71.1405 39.8186 71.4263 39.933 71.7693 39.933H72.9697V37.7036H71.7693C71.0262 37.7608 70.626 38.1037 70.626 38.8469Z" fill="black"/>
<path d="M50.8476 10.837C50.8476 11.0656 50.6761 11.2371 50.5046 11.3514C50.1617 11.6373 49.8187 11.9231 49.4185 12.1517C49.2471 12.2661 49.1327 12.3232 48.9612 12.4375C47.8751 13.0663 46.7319 13.4665 45.5315 13.5808C43.8737 13.7523 42.2732 13.5808 40.7298 13.0092C40.101 12.7805 39.4722 12.4947 38.9006 12.1517C38.5004 11.9231 38.1003 11.6944 37.7001 11.4658C36.3854 10.6655 35.0706 9.92237 33.6987 9.4079C32.4411 8.9506 31.1835 8.60762 29.8688 8.43613C28.1539 8.26464 26.4962 8.43613 24.8384 9.00776C24.667 9.06492 24.4955 9.12209 24.2668 9.17925C23.981 9.23641 23.8667 9.12209 23.9238 8.83627C24.0382 8.43613 24.1525 8.03599 24.324 7.69301C24.9528 6.20677 25.9245 4.94919 27.125 3.86309C28.554 2.54834 30.2689 1.63373 32.0982 1.00494C33.7559 0.433307 35.4708 0.147491 37.5858 0.147491C40.3296 0.147491 43.1878 0.947773 45.7601 2.6055C47.5322 3.80592 49.0184 5.29216 49.933 7.23571C50.3903 8.15032 50.6761 9.12209 50.8476 10.151C50.9048 10.4368 50.9048 10.6083 50.8476 10.837Z" fill="black"/>
<path d="M50.9048 13.9238V27.4714C50.9048 27.9859 50.5046 28.386 49.9902 28.386H36.0424C35.5279 28.386 35.1278 27.9859 35.1278 27.4714V22.7269C35.1278 20.7262 33.5272 19.1256 31.5265 19.0684C29.4686 19.0113 27.8109 20.7833 27.8109 22.784V27.4714C27.8109 27.9859 27.4108 28.386 26.9535 28.386H24.5526C24.0381 28.386 23.638 27.9859 23.638 26.3282V11.8659C23.638 11.8659 23.8667 11.5229 24.0381 11.4086C24.1525 11.2943 24.324 11.2371 24.4383 11.1799C25.5244 10.6083 26.6676 10.2653 27.9252 10.2653C28.7827 10.2653 29.6401 10.2082 30.4404 10.3797C31.9838 10.6083 33.4129 11.0656 34.7276 11.7516C34.8991 11.8659 35.1278 11.9231 35.2993 12.0374C36.0995 12.4375 36.8427 12.8377 37.6429 13.295C38.9577 13.9809 40.2724 14.5526 41.7587 14.8384C43.4736 15.1814 45.1885 15.2385 46.9605 14.8955C47.9895 14.6669 48.9041 14.3811 49.8187 13.9238C49.9902 13.8666 50.2188 13.7523 50.3903 13.6951C50.7333 13.5808 50.9048 13.6951 50.9048 13.9238Z" fill="black"/>
</svg>
