<svg width="60" height="60" viewBox="0 0 60 60" fill="none" xmlns="http://www.w3.org/2000/svg">
<g clip-path="url(#clip0_259_904)">
<path d="M24.6516 53.1898L24.4754 54.0508L24.6452 53.1889C24.1691 53.095 23.7068 53.4049 23.6129 53.881C23.5191 54.3575 23.829 54.8194 24.3055 54.9133C24.3069 54.9137 24.3202 54.916 24.3216 54.9165C24.3774 54.927 24.4328 54.9325 24.4877 54.9325C24.9011 54.9325 25.2696 54.6395 25.3497 54.2184C25.4413 53.7414 25.1286 53.2809 24.6516 53.1898Z" fill="white"/>
<path d="M31.3718 53.4722L31.4593 54.3465L31.3691 53.4726C30.8861 53.522 30.535 53.9537 30.5849 54.4367C30.6312 54.8889 31.0129 55.2258 31.4579 55.2258C31.4881 55.2258 31.5188 55.224 31.549 55.2213L31.5732 55.2185C32.0539 55.1622 32.3949 54.7287 32.3414 54.2481C32.2873 53.7679 31.8525 53.4218 31.3718 53.4722Z" fill="white"/>
<path d="M28.0069 53.5829C28.0069 53.5829 27.9946 53.5825 27.9941 53.5825C27.5098 53.5605 27.1051 53.9368 27.0831 54.4215C27.0616 54.9063 27.4425 55.3169 27.9273 55.3389C27.941 55.3398 27.9543 55.3398 27.968 55.3398C28.4349 55.3398 28.824 54.9722 28.8451 54.5007C28.867 54.016 28.4921 53.6049 28.0069 53.5829Z" fill="white"/>
<path d="M21.4051 52.2968L21.3941 52.2926C20.9373 52.1288 20.4392 52.3677 20.2754 52.8246C20.111 53.2814 20.3536 53.7868 20.8105 53.9511C20.9089 53.9864 21.0092 54.0029 21.1076 54.0029C21.4678 54.0029 21.8061 53.7799 21.9348 53.421C22.0991 52.9642 21.862 52.4606 21.4051 52.2968Z" fill="white"/>
<path d="M34.6885 52.857L34.905 53.7089L34.6857 52.8579C34.2156 52.9788 33.9327 53.458 34.0535 53.9282C34.1556 54.3246 34.5127 54.5883 34.9041 54.5883C34.9768 54.5883 35.0505 54.5791 35.1242 54.5599C35.1279 54.559 35.1435 54.5548 35.1476 54.5539C35.6141 54.4267 35.8869 53.9474 35.7624 53.48C35.6379 53.0131 35.1567 52.7352 34.6885 52.857Z" fill="white"/>
<path d="M37.8658 51.7488L38.2142 52.5554L37.8631 51.7497C37.4181 51.9438 37.2144 52.4615 37.408 52.9065C37.5522 53.2374 37.8754 53.4347 38.2146 53.4347C38.3314 53.4347 38.4508 53.4109 38.5648 53.3615C38.5685 53.3597 38.5827 53.3537 38.5863 53.3519C39.0272 53.1527 39.2217 52.6364 39.0249 52.1946C38.828 51.7524 38.3089 51.5542 37.8658 51.7488Z" fill="white"/>
<path d="M18.0479 11.6836C18.1889 11.6836 18.3321 11.6497 18.4644 11.5792C18.8929 11.3508 19.0545 10.8184 18.8261 10.39C18.5976 9.96196 18.0657 9.79946 17.6373 10.0283L17.6267 10.0338C17.1987 10.2623 17.0417 10.7919 17.2701 11.2204C17.4276 11.5161 17.7334 11.6836 18.0479 11.6836Z" fill="white"/>
<path d="M7.88142 21.5002C8.01188 21.5684 8.1515 21.6009 8.28929 21.6009C8.6056 21.6009 8.91139 21.4297 9.0684 21.1299L9.08397 21.0992C9.2982 20.6634 9.11876 20.1365 8.68296 19.9227C8.25038 19.7094 7.72761 19.8852 7.51063 20.315C7.28633 20.7444 7.45204 21.275 7.88142 21.5002Z" fill="white"/>
<path d="M6.64407 24.8066C6.73745 24.8382 6.83221 24.8533 6.92605 24.8533C7.29226 24.8533 7.63421 24.6221 7.75826 24.2559L7.76971 24.2211C7.91253 23.7574 7.65206 23.2653 7.18789 23.1229C6.72784 22.981 6.2394 23.2365 6.09246 23.6942C5.9382 24.1534 6.18493 24.6514 6.64407 24.8066Z" fill="white"/>
<path d="M9.6154 18.4255C9.7715 18.539 9.95232 18.594 10.1318 18.594C10.4032 18.594 10.6715 18.4681 10.8431 18.2319L10.8546 18.2163C11.1366 17.8217 11.0445 17.2742 10.6509 16.9923C10.2567 16.7098 9.70741 16.8005 9.42452 17.1941L10.1327 17.7151L9.42177 17.1978C9.13612 17.5906 9.2231 18.1403 9.6154 18.4255Z" fill="white"/>
<path d="M15.0641 13.5819C15.2486 13.5819 15.4345 13.5237 15.5933 13.4029C15.9851 13.1163 16.0698 12.5665 15.7833 12.1747C15.4963 11.7828 14.9465 11.6982 14.5551 11.9847L14.5331 12.0007C14.1468 12.2942 14.0699 12.8467 14.3633 13.2335C14.5363 13.4615 14.7986 13.5819 15.0641 13.5819Z" fill="white"/>
<path d="M5.85953 38.1359C5.9758 38.5135 6.32279 38.7557 6.69816 38.7557C6.78376 38.7557 6.87119 38.7429 6.95725 38.7163C7.41868 38.5749 7.67914 38.086 7.5409 37.6236C7.4086 37.1622 6.93024 36.8912 6.4647 37.018C5.9964 37.1457 5.72037 37.6291 5.84809 38.0974C5.85083 38.1066 5.85679 38.1267 5.85953 38.1359Z" fill="white"/>
<path d="M12.4092 15.8982C12.6376 15.8982 12.866 15.8099 13.0386 15.6341C13.3815 15.2908 13.3815 14.7341 13.0386 14.3913C12.6953 14.048 12.1386 14.048 11.7953 14.3913L11.7807 14.4059C11.441 14.7525 11.4479 15.3082 11.7944 15.6478C11.9651 15.8154 12.1872 15.8982 12.4092 15.8982Z" fill="white"/>
<path d="M6.83083 34.304C6.76903 33.8265 6.33278 33.4878 5.85488 33.5445C5.37331 33.6022 5.02907 34.0394 5.08629 34.5214L5.09133 34.5567C5.15542 34.9934 5.53032 35.3065 5.95925 35.3065C6.00136 35.3065 6.04439 35.3033 6.08788 35.2969C6.56624 35.2273 6.89812 34.7823 6.83083 34.304Z" fill="white"/>
<path d="M5.72669 31.7866C5.73585 31.7866 5.74455 31.787 5.75324 31.787C6.22657 31.787 6.6175 31.4103 6.63123 30.9338L6.63215 30.8962C6.63215 30.4106 6.23847 30.0173 5.75324 30.0173C5.27122 30.0173 4.88029 30.4046 4.87434 30.8848C4.86152 31.3691 5.24284 31.7724 5.72669 31.7866Z" fill="white"/>
<path d="M5.91949 28.2618C5.97213 28.271 6.02386 28.2755 6.07558 28.2755C6.49306 28.2755 6.8634 27.9766 6.93984 27.5514C6.94213 27.5385 6.94396 27.5257 6.94579 27.5129C7.01675 27.0327 6.68487 26.5859 6.20422 26.5154C5.72951 26.4449 5.28503 26.7713 5.20858 27.2447C5.12527 27.7216 5.44295 28.1762 5.91949 28.2618Z" fill="white"/>
<path d="M47.3791 18.7029C47.5493 18.9501 47.8231 19.0824 48.1023 19.0824C48.274 19.0824 48.4479 19.032 48.5999 18.9272C48.9995 18.6525 49.1007 18.105 48.826 17.7049L48.0955 18.1938L48.8233 17.7008C48.5505 17.2989 48.0039 17.1941 47.6024 17.4665C47.2005 17.7388 47.0957 18.2854 47.3681 18.6873L47.3791 18.7029Z" fill="white"/>
<path d="M51.8674 27.5473C51.3849 27.6013 51.0379 28.0367 51.0924 28.5191L51.097 28.5571C51.1597 28.9952 51.536 29.3115 51.9663 29.3115C52.0075 29.3115 52.0496 29.3088 52.0917 29.3028C52.5683 29.2346 52.9006 28.7956 52.8388 28.3196C52.7834 27.8385 52.3467 27.4933 51.8674 27.5473Z" fill="white"/>
<path d="M50.3843 25.0671L50.388 25.0786C50.5006 25.4617 50.8508 25.7098 51.2307 25.7098C51.3126 25.7098 51.396 25.6984 51.4788 25.6737C51.9448 25.5368 52.2112 25.0483 52.0744 24.5823L52.0707 24.5709C51.9338 24.1049 51.4454 23.8385 50.9794 23.9758C50.5138 24.1127 50.2474 24.6011 50.3843 25.0671Z" fill="white"/>
<path d="M49.1428 21.7808C49.2962 22.0925 49.6097 22.2742 49.9357 22.2742C50.0652 22.2742 50.197 22.2454 50.3211 22.1841C50.7564 21.9698 50.9372 21.4461 50.7226 21.0104L49.926 21.3816L50.7216 21.0085C50.5156 20.5691 49.9924 20.38 49.553 20.586C49.1135 20.792 48.924 21.3152 49.13 21.7547L49.1428 21.7808Z" fill="white"/>
<path d="M45.1653 15.9581C45.3374 16.1338 45.5649 16.2217 45.7929 16.2217C46.0149 16.2217 46.2369 16.1384 46.4081 15.9704C46.7524 15.6335 46.7602 15.0828 46.4283 14.7358C46.0992 14.3811 45.5443 14.3595 45.1882 14.6882C44.8316 15.0174 44.8096 15.5735 45.1388 15.9301L45.1653 15.9581Z" fill="white"/>
<path d="M52.1531 31.2171C51.6701 31.2047 51.2659 31.5833 51.249 32.0662C51.227 32.5474 51.5964 32.9571 52.078 32.9841C52.0949 32.985 52.1109 32.9854 52.1279 32.9854C52.5907 32.9854 52.9784 32.6233 53.0045 32.155L53.0059 32.1189C53.0196 31.6341 52.6378 31.2313 52.1531 31.2171Z" fill="white"/>
<path d="M39.5449 11.6424L39.566 11.6538C39.6969 11.7234 39.8375 11.7564 39.9757 11.7564C40.2883 11.7564 40.5909 11.5879 40.7498 11.2926C40.9787 10.8665 40.8175 10.3336 40.3927 10.1029L39.9675 10.872L40.39 10.1011C39.9643 9.86762 39.43 10.0237 39.1966 10.4494C38.9636 10.8747 39.1192 11.4094 39.5449 11.6424Z" fill="white"/>
<path d="M42.5176 13.57L42.5313 13.5805C42.6901 13.7009 42.8764 13.759 43.0618 13.759C43.3273 13.759 43.5896 13.6391 43.7627 13.4111C44.0561 13.0243 43.9801 12.4732 43.5938 12.1797L43.5878 12.1756C43.2028 11.8799 42.6512 11.9522 42.3555 12.3372C42.0598 12.7222 42.1326 13.2743 42.5176 13.57Z" fill="white"/>
<path d="M59.4577 44.523L55.3318 40.3899C54.9807 40.0383 54.5143 39.8447 54.0176 39.8447C53.5214 39.8447 53.0545 40.0383 52.7038 40.3899L52.6082 40.4855L52.3372 40.2145C52.0025 39.879 51.7434 39.4885 51.5677 39.0633C51.5521 39.007 51.5315 38.952 51.5049 38.9003C51.3704 38.5222 51.3003 38.1198 51.3003 37.7065V36.5373C51.3804 36.5794 51.4679 36.6101 51.5617 36.6261C51.6121 36.6348 51.662 36.6389 51.7114 36.6389C52.1284 36.6389 52.4974 36.3414 52.5747 35.9184C52.6686 35.4433 52.3605 34.9814 51.8849 34.8862C51.6757 34.8445 51.4688 34.8807 51.2948 34.975C51.2408 33.7262 50.7304 32.5598 49.8423 31.6699L45.8397 27.6604C44.9415 26.7609 43.7472 26.2656 42.4769 26.2656C41.4937 26.2656 40.5571 26.5636 39.767 27.1152L39.3422 26.6881V16.6356C39.3422 15.4239 38.9023 14.2548 38.1039 13.3443C37.5358 12.697 37.2232 11.8657 37.2232 11.0033V10.2667H37.2836C38.3081 10.2667 39.1417 9.43314 39.1417 8.4082V2.56165C39.1417 1.53671 38.3081 0.703125 37.2836 0.703125H20.8659C19.8414 0.703125 19.0078 1.53671 19.0078 2.56165V8.4082C19.0078 9.43314 19.8414 10.2667 20.8659 10.2667H21.0014V10.6522C21.0014 11.5997 20.6329 12.4905 19.9641 13.1602L18.1921 14.9355C17.2519 15.8775 16.7341 17.1295 16.7341 18.4616V24.1319C16.7341 24.9023 16.9191 25.6297 17.2445 26.2743C16.0791 26.3416 14.9928 26.8272 14.1606 27.6604L10.1579 31.6699C9.21765 32.612 8.69992 33.8644 8.69992 35.1961V37.7065C8.69992 38.654 8.33188 39.5448 7.66309 40.2145L7.39529 40.4828C7.39392 40.4837 7.39301 40.4846 7.39209 40.4855L7.29688 40.3899C6.94577 40.0383 6.47931 39.8447 5.98264 39.8447C5.48642 39.8447 5.0195 40.0383 4.66885 40.3899L0.542572 44.523C-0.180695 45.2477 -0.180695 46.4268 0.542572 47.1515L1.95569 48.5664C2.29855 48.9102 2.85519 48.9107 3.19852 48.5678C3.54184 48.2245 3.54276 47.6683 3.19943 47.3245L1.78677 45.9091C1.74695 45.8693 1.74695 45.8047 1.78677 45.7649L5.91306 41.6318C5.95151 41.5933 6.01422 41.5929 6.05267 41.6318L6.76999 42.3505H6.77045L16.5652 52.1622L17.6625 53.2617C17.7023 53.3015 17.7023 53.3661 17.6625 53.4059L13.5367 57.5391C13.4977 57.578 13.435 57.578 13.3966 57.5391L5.68784 49.817C5.34497 49.4733 4.78833 49.4728 4.44501 49.8157C4.10123 50.159 4.10077 50.7152 4.44363 51.059L12.1528 58.781C12.5035 59.1325 12.9704 59.3262 13.4671 59.3262C13.9633 59.3262 14.4297 59.1325 14.7809 58.781L18.9067 54.6478C19.6299 53.9236 19.6299 52.7444 18.9067 52.0198L18.8618 51.9749L19.3823 51.4536C19.9902 50.8443 20.7977 50.4781 21.656 50.4227C22.864 50.3444 24.0007 49.8289 24.8562 48.9716L28.6465 45.173C29.7397 44.886 30.5906 43.9957 30.8218 42.8806C31.2114 43.0659 31.6467 43.1703 32.1063 43.1703C33.7593 43.1703 35.1042 41.824 35.1042 40.1688V38.0818C35.4823 38.2544 35.9021 38.3514 36.3443 38.3514C37.9973 38.3514 39.3417 37.0052 39.3417 35.3499V29.1801L42.0453 31.897C42.2169 32.0695 42.4426 32.1556 42.6683 32.1556C42.8926 32.1556 43.1169 32.0705 43.2885 31.8997C43.6323 31.5573 43.6337 31.0011 43.2913 30.6569L41.0373 28.3919C41.4735 28.1516 41.9651 28.0234 42.4769 28.0234C43.2771 28.0234 44.0297 28.3356 44.5955 28.9027L48.5981 32.9118C49.207 33.522 49.5425 34.3332 49.5425 35.1961V37.7065C49.5425 39.1232 50.0932 40.4549 51.093 41.4565L51.3658 41.7297L50.0909 43.0069L42.3803 50.7307L41.9505 50.3C41.9459 50.2959 41.9418 50.2913 41.9372 50.2872L41.8617 50.2112C40.9517 49.2998 39.7427 48.7518 38.4582 48.6685C37.6768 48.6177 36.9417 48.2845 36.3855 47.7278L33.4974 44.8553C33.1532 44.5129 32.5966 44.5143 32.2542 44.8586C31.9122 45.2028 31.9136 45.7594 32.2578 46.1014L35.144 48.9716C35.9996 49.8289 37.1362 50.3444 38.3447 50.4227C39.2025 50.4781 40.01 50.8443 40.618 51.4531L40.6605 51.4957C40.6834 51.5218 40.7077 51.546 40.7333 51.5689L41.1384 51.9745L41.0936 52.0198C40.3703 52.7444 40.3703 53.9232 41.0936 54.6478L45.2194 58.781C45.5705 59.1325 46.037 59.3262 46.5336 59.3262C47.0298 59.3262 47.4968 59.1325 47.8479 58.781L59.4577 47.151C60.1809 46.4264 60.1809 45.2477 59.4577 44.523ZM51.8895 35.7834L51.873 35.7806L51.7128 35.7481L51.8895 35.7834ZM23.612 47.7296C23.0586 48.2845 22.3234 48.6177 21.5425 48.6685C20.2575 48.7518 19.0486 49.2998 18.1385 50.2112L17.6199 50.7307L17.153 50.2629C17.147 50.257 17.1411 50.2505 17.1351 50.2451L8.63446 41.7297L8.90729 41.4565C9.90704 40.4549 10.4577 39.1232 10.4577 37.7065V35.1961C10.4577 34.3332 10.7928 33.522 11.4021 32.9118L15.4048 28.9027C15.9706 28.3356 16.7231 28.0234 17.5233 28.0234C18.0365 28.0234 18.5299 28.1525 18.9676 28.3946L16.7099 30.656C16.367 30.9993 16.3675 31.5559 16.7108 31.8988C16.8824 32.07 17.1072 32.1556 17.332 32.1556C17.5572 32.1556 17.7824 32.0695 17.9541 31.8979L20.6508 29.1962V40.1688C20.6508 41.824 21.9957 43.1703 23.6487 43.1703C24.1147 43.1703 24.5559 43.0632 24.9496 42.8728C25.1281 43.7439 25.6848 44.4781 26.4392 44.8965L23.612 47.7296ZM37.5844 35.3503C37.5844 36.0361 37.0277 36.5941 36.3443 36.5941C35.6604 36.5941 35.1042 36.0361 35.1042 35.3503V25.5464C35.1042 25.0612 34.711 24.6675 34.2253 24.6675C33.7396 24.6675 33.3464 25.0612 33.3464 25.5464V40.1692C33.3464 40.8549 32.7902 41.4125 32.1063 41.4125C31.4924 41.4125 30.9829 40.963 30.8845 40.3748V25.5363C30.8845 25.0507 30.4913 24.6574 30.0056 24.6574C29.8495 24.6574 29.7026 24.6986 29.5753 24.7701C29.2975 24.9179 29.1084 25.21 29.1084 25.5464V40.1688C29.1084 40.2805 29.1148 40.3899 29.1267 40.4984V42.2694C29.1267 42.9552 28.5705 43.5132 27.8866 43.5132C27.2032 43.5132 26.647 42.9552 26.647 42.2694V25.5258C26.647 25.0406 26.2533 24.6469 25.7681 24.6469C25.2824 24.6469 24.8887 25.0406 24.8887 25.5258V40.1688C24.8887 40.8545 24.3326 41.4125 23.6491 41.4125C22.9652 41.4125 22.409 40.8545 22.409 40.1688V23.8197C22.409 23.334 22.0154 22.9404 21.5301 22.9404C21.0444 22.9404 20.6512 23.334 20.6512 23.8197V26.8437C20.5775 26.8675 20.5061 26.9009 20.4397 26.9449C19.3031 26.5178 18.4919 25.4182 18.4919 24.1319V18.4616C18.4919 17.5987 18.8275 16.7876 19.4363 16.1774L21.2083 14.4022C22.2085 13.4006 22.7592 12.0689 22.7592 10.6522V10.2667H24.5262C25.0119 10.2667 25.4051 9.87305 25.4051 9.38782C25.4051 8.90213 25.0119 8.50891 24.5262 8.50891H20.8659C20.8105 8.50891 20.7657 8.46359 20.7657 8.4082V2.56165C20.7657 2.50626 20.8105 2.46094 20.8659 2.46094H37.2831C37.339 2.46094 37.3839 2.50626 37.3839 2.56165V8.4082C37.3839 8.46405 37.339 8.50891 37.2831 8.50891H28.6525C28.1672 8.50891 27.7736 8.90213 27.7736 9.38782C27.7736 9.87305 28.1672 10.2667 28.6525 10.2667H35.4654V11.0033C35.4654 12.2923 35.9327 13.5352 36.7819 14.5038C37.2992 15.0934 37.5844 15.8505 37.5844 16.6356V35.3503ZM58.2135 45.9091L46.6037 57.5391C46.5844 57.5587 46.5611 57.5684 46.5336 57.5684C46.5066 57.5684 46.4833 57.5587 46.4636 57.5391L42.3378 53.4059C42.2979 53.3661 42.2979 53.3015 42.3378 53.2617L43.002 52.5961L43.0024 52.5957L49.7421 45.8446L53.9476 41.6318C53.986 41.5929 54.0487 41.5929 54.0872 41.6318L58.2135 45.7649C58.2533 45.8047 58.2533 45.8693 58.2135 45.9091Z" fill="white"/>
<path d="M23.6486 4.54736C23.1327 4.54736 22.7129 4.96805 22.7129 5.48486C22.7129 6.00214 23.1327 6.42236 23.6486 6.42236C24.1649 6.42236 24.5847 6.00214 24.5847 5.48486C24.5847 4.96805 24.1649 4.54736 23.6486 4.54736Z" fill="white"/>
<path d="M54.305 44.6118C53.7887 44.6118 53.3689 45.0325 53.3689 45.5493C53.3689 46.0661 53.7887 46.4868 54.305 46.4868C54.8209 46.4868 55.2407 46.0661 55.2407 45.5493C55.2407 45.0325 54.8209 44.6118 54.305 44.6118Z" fill="white"/>
<path d="M14.6467 53.5784C14.6467 53.0616 14.2269 52.6409 13.711 52.6409C13.1947 52.6409 12.7749 53.0616 12.7749 53.5784C12.7749 54.0952 13.1947 54.5159 13.711 54.5159C14.2269 54.5159 14.6467 54.0952 14.6467 53.5784Z" fill="white"/>
</g>
<defs>
<clipPath id="clip0_259_904">
<rect width="60" height="60" fill="white"/>
</clipPath>
</defs>
</svg>
