<svg width="60" height="38" viewBox="0 0 60 38" fill="none" xmlns="http://www.w3.org/2000/svg">
<path d="M55.8001 16.1129L54.2463 9.89787C54.6711 9.80764 54.9899 9.43076 54.9899 8.97924V7.97717C54.9899 5.80147 53.2198 4.03147 51.0442 4.03147H43.967V1.96451C43.967 0.893887 43.0961 0.0229492 42.0254 0.0229492H5.95021C4.87958 0.0229492 4.00865 0.893887 4.00865 1.96451V19.0001C4.00865 19.5188 4.42923 19.9396 4.94814 19.9396C5.46693 19.9396 5.88763 19.519 5.88763 19.0001V1.96451C5.88763 1.92994 5.91564 1.90193 5.95021 1.90193H42.0253C42.0599 1.90193 42.0879 1.92994 42.0879 1.96451V19.0003C42.0879 19.5191 42.5085 19.9398 43.0274 19.9398C43.5462 19.9398 43.9669 19.5192 43.9669 19.0003V17.9353H55.0492C55.0501 17.9353 55.0508 17.9355 55.0517 17.9355C55.0526 17.9355 55.0534 17.9354 55.0542 17.9354C56.4179 17.9363 57.5759 18.8314 57.9736 20.0648H55.0524C54.5336 20.0648 54.1129 20.4854 54.1129 21.0043V23.0085C54.1129 24.6316 55.4333 25.9521 57.0565 25.9521H58.1213V30.0856H55.6648C54.8578 27.7556 52.6429 26.0772 50.0419 26.0772C47.4409 26.0772 45.2258 27.7556 44.419 30.0856H43.9667V23.0083C43.9667 22.4896 43.5461 22.0689 43.0272 22.0689C42.5084 22.0689 42.0877 22.4894 42.0877 23.0083V30.0854H22.5961C21.7892 27.7554 19.5742 26.077 16.9732 26.077C14.3722 26.077 12.1572 27.7554 11.3503 30.0854H5.95021C5.91564 30.0854 5.88763 30.0574 5.88763 30.0228V27.956H9.95861C10.4774 27.956 10.8981 27.5354 10.8981 27.0165C10.8981 26.4976 10.4775 26.077 9.95861 26.077H0.939858C0.421069 26.077 0.000366211 26.4976 0.000366211 27.0165C0.000366211 27.5354 0.420952 27.956 0.939858 27.956H4.00876V30.0228C4.00876 31.0935 4.8797 31.9644 5.95033 31.9644H11.025C11.0248 31.9853 11.0234 32.006 11.0234 32.027C11.0234 35.3078 13.6926 37.9768 16.9732 37.9768C20.2539 37.9768 22.9231 35.3078 22.9231 32.027C22.9231 32.0059 22.9217 31.9853 22.9214 31.9644H44.0937C44.0935 31.9853 44.092 32.006 44.092 32.027C44.092 35.3078 46.7612 37.9768 50.0419 37.9768C53.3226 37.9768 55.9917 35.3078 55.9917 32.027C55.9917 32.0059 55.9903 31.9853 55.9901 31.9644H59.0608C59.5795 31.9644 60.0002 31.5438 60.0002 31.0249V21.0041C60.0004 18.53 58.1749 16.4744 55.8001 16.1129ZM43.967 5.91033H51.0442C52.1838 5.91033 53.111 6.83752 53.111 7.97717V8.03975H43.967V5.91033ZM43.967 16.0564V9.91862H52.3149L53.8493 16.0564H43.967ZM16.9732 36.0982C14.7285 36.0982 12.9022 34.2721 12.9022 32.0272C12.9022 29.7824 14.7285 27.9562 16.9732 27.9562C19.2179 27.9562 21.0442 29.7824 21.0442 32.0272C21.0442 34.2721 19.2179 36.0982 16.9732 36.0982ZM50.0421 36.0982C47.7974 36.0982 45.9711 34.2721 45.9711 32.0272C45.9711 29.7824 47.7974 27.9562 50.0421 27.9562C52.2868 27.9562 54.1131 29.7824 54.1131 32.0272C54.1131 34.2721 52.2868 36.0982 50.0421 36.0982ZM58.1215 24.0731H57.0567C56.4696 24.0731 55.992 23.5955 55.992 23.0083V21.9436H58.1214V24.0731H58.1215Z" fill="white"/>
</svg>
