<svg width="28" height="29" viewBox="0 0 28 29" fill="none" xmlns="http://www.w3.org/2000/svg">
<path d="M23.8995 4.60049C21.2553 1.95627 17.7395 0.5 14 0.5C10.2605 0.5 6.74472 1.95627 4.10049 4.60049C1.45627 7.24472 0 10.7605 0 14.5C0 18.2395 1.45627 21.7553 4.10049 24.3995C6.74472 27.0437 10.2605 28.5 14 28.5C17.7395 28.5 21.2553 27.0437 23.8995 24.3995C26.5437 21.7553 28 18.2395 28 14.5C28 10.7605 26.5437 7.24472 23.8995 4.60049ZM6.07608 23.9772C6.53836 19.9995 9.95825 16.9285 14 16.9285C16.1307 16.9285 18.1342 17.7586 19.6414 19.2655C20.9146 20.5389 21.7176 22.2015 21.9241 23.977C19.7772 25.775 17.0129 26.8594 14 26.8594C10.9871 26.8594 8.22299 25.7752 6.07608 23.9772ZM14 15.2387C11.6555 15.2387 9.74783 13.3311 9.74783 10.9865C9.74783 8.64182 11.6555 6.73438 14 6.73438C16.3445 6.73438 18.2522 8.64182 18.2522 10.9865C18.2522 13.3311 16.3445 15.2387 14 15.2387ZM23.3362 22.5901C22.9181 20.9046 22.0463 19.3505 20.8013 18.1055C19.793 17.0972 18.6002 16.3408 17.2992 15.8668C18.8631 14.8061 19.8928 13.0143 19.8928 10.9865C19.8928 7.73734 17.2492 5.09375 14 5.09375C10.7508 5.09375 8.10721 7.73734 8.10721 10.9865C8.10721 13.0153 9.13773 14.8078 10.7029 15.8683C9.50601 16.3045 8.39838 16.9789 7.4454 17.8667C6.0654 19.1519 5.10709 20.7906 4.66275 22.5888C2.78094 20.4195 1.64062 17.5905 1.64062 14.5C1.64062 7.685 7.185 2.14062 14 2.14062C20.815 2.14062 26.3594 7.685 26.3594 14.5C26.3594 17.5911 25.2186 20.4208 23.3362 22.5901Z" fill="black"/>
</svg>
