<svg width="20" height="16" viewBox="0 0 20 16" fill="none" xmlns="http://www.w3.org/2000/svg">
<path d="M13.0784 7.10132L8.65991 4.68372C8.40585 4.54471 8.10556 4.5499 7.85654 4.69745C7.60736 4.84516 7.45874 5.10608 7.45874 5.39569V10.1894C7.45874 10.4776 7.60645 10.7381 7.85394 10.886C7.98318 10.9632 8.12646 11.0019 8.27005 11.0019C8.40158 11.0019 8.53342 10.9694 8.65472 10.9041L13.0734 8.52817C13.3357 8.38703 13.4994 8.11435 13.5006 7.81635C13.5017 7.51834 13.3399 7.24445 13.0784 7.10132V7.10132ZM8.63077 9.58637V6.0036L11.9331 7.81055L8.63077 9.58637Z" fill="white"/>
<path d="M19.8529 3.99716L19.852 3.98801C19.8351 3.82703 19.6664 2.39514 18.9703 1.66684C18.1657 0.810211 17.2536 0.706146 16.8149 0.65625C16.7786 0.65213 16.7453 0.648315 16.7155 0.644348L16.6806 0.640686C14.0366 0.448425 10.0435 0.42218 10.0035 0.422028L10 0.421875L9.99649 0.422028C9.95651 0.42218 5.96344 0.448425 3.29559 0.640686L3.26035 0.644348C3.23196 0.648163 3.20068 0.651672 3.16666 0.65564C2.733 0.705688 1.8306 0.809906 1.02371 1.69751C0.360718 2.41803 0.169067 3.81924 0.149384 3.97672L0.147095 3.99716C0.141144 4.06415 0 5.65884 0 7.2598V8.75638C0 10.3573 0.141144 11.952 0.147095 12.0192L0.148163 12.0292C0.1651 12.1876 0.333557 13.5933 1.02646 14.3219C1.78299 15.1498 2.73956 15.2594 3.25409 15.3183C3.33542 15.3276 3.40546 15.3355 3.45322 15.3439L3.49945 15.3503C5.02609 15.4956 9.81262 15.5671 10.0156 15.57L10.0217 15.5702L10.0278 15.57C10.0677 15.5699 14.0607 15.5436 16.7047 15.3514L16.7397 15.3477C16.7731 15.3433 16.8106 15.3393 16.8518 15.3351C17.283 15.2893 18.1805 15.1942 18.9763 14.3187C19.6393 13.598 19.8311 12.1968 19.8506 12.0395L19.8529 12.019C19.8589 11.9519 20.0002 10.3573 20.0002 8.75638V7.2598C20 5.65884 19.8589 4.0643 19.8529 3.99716V3.99716ZM18.828 8.75638C18.828 10.2382 18.6986 11.7642 18.6864 11.9043C18.6366 12.2902 18.4344 13.1767 18.1114 13.5278C17.6134 14.0757 17.1017 14.1301 16.7282 14.1696C16.683 14.1743 16.6412 14.1789 16.6034 14.1836C14.046 14.3686 10.2037 14.3969 10.0267 14.398C9.82819 14.3951 5.11169 14.3229 3.63159 14.1855C3.55576 14.1731 3.47382 14.1636 3.38745 14.1539C2.94937 14.1037 2.3497 14.035 1.88858 13.5278L1.87775 13.5162C1.56036 13.1855 1.36398 12.3565 1.31409 11.9088C1.30478 11.8029 1.17203 10.2589 1.17203 8.75638V7.2598C1.17203 5.77969 1.30112 4.25534 1.31363 4.11237C1.37299 3.65781 1.57898 2.82498 1.88858 2.48837C2.40189 1.9238 2.94312 1.86124 3.30109 1.81989C3.33527 1.81592 3.36716 1.81226 3.39661 1.80844C5.99121 1.62259 9.86115 1.59497 10 1.5939C10.1389 1.59482 14.0074 1.62259 16.579 1.80844C16.6106 1.81241 16.6451 1.81638 16.6821 1.82065C17.0503 1.86261 17.6068 1.92609 18.1175 2.47083L18.1223 2.47586C18.4396 2.80652 18.636 3.65002 18.6859 4.10672C18.6948 4.20667 18.828 5.75406 18.828 7.2598V8.75638Z" fill="white"/>
</svg>
